<svg xmlns="http://www.w3.org/2000/svg" width="1100" height="1100" viewBox="0 0 1100 1100">
<rect x="0" y="0" width="1100" height="1100" fill="#ffffff"/>
<text x="18" y="26" font-family="-apple-system,Helvetica,Arial" font-size="18" font-weight="600" fill="#111">arc/detour-third-box</text>
<text x="18" y="46" font-family="ui-monospace,Menlo,monospace" font-size="12" fill="#444">rest ink detours over a third box; the warp drags the detour with it (D12 interior pins are out of scope)</text>
<text x="18" y="63" font-family="ui-monospace,Menlo,monospace" font-size="12" fill="#444">ends: A edge:aligned obliq 0.9deg   B edge:aligned obliq 80.7deg</text>
<text x="18" y="80" font-family="ui-monospace,Menlo,monospace" font-size="12" fill="#444">rest 340 samples, len 392.3u, chord 331.7u   |   warped L' 559.7u, scale 1.427</text>
<text x="18" y="97" font-family="ui-monospace,Menlo,monospace" font-size="12" fill="#444">turn 31.8/31.8deg   Local blend 0.059/0.059 of arc   Morph m=0.277   Cubic handle 559.7u</text>
<text x="18" y="114" font-family="ui-monospace,Menlo,monospace" font-size="12" fill="#444">secant facing deg  Local 3.6  Cubic 0.4  Morph 23.3   analytic  Local 0.0  Cubic 0.00  Morph 23.1</text>
<text x="18" y="131" font-family="ui-monospace,Menlo,monospace" font-size="12" fill="#444">W5 cusps/minR  Local 0+0 r19.9  Cubic 0+0 r71.5  Morph 0+0 r105.5   backtrack/x 0/0/0   inflections Cubic/Morph 1/1</text>
<text x="18" y="148" font-family="ui-monospace,Menlo,monospace" font-size="12" fill="#444">ink spent vs U: mean/frac&gt;1u  Local 0.43u/14%  Cubic 47.73u/98%  Morph 13.22u/94%</text>
<polyline fill="none" stroke="#999999" stroke-width="1.20" stroke-linejoin="round" stroke-linecap="round" stroke-dasharray="3,3" opacity="0.90" points="450.4,402.1 633.3,402.1 633.3,545.7 450.4,545.7 450.4,402.1"/>
<polyline fill="none" stroke="#c9c9c9" stroke-width="1.40" stroke-linejoin="round" stroke-linecap="round" stroke-dasharray="6,4" points="84.8,399.5 319.8,399.5 319.8,561.4 84.8,561.4 84.8,399.5"/>
<polyline fill="none" stroke="#c9c9c9" stroke-width="1.40" stroke-linejoin="round" stroke-linecap="round" stroke-dasharray="6,4" points="750.8,336.8 1012.0,336.8 1012.0,519.6 750.8,519.6 750.8,336.8"/>
<polyline fill="none" stroke="#111111" stroke-width="1.80" stroke-linejoin="round" stroke-linecap="round" points="26.0,732.5 261.1,732.5 261.1,894.4 26.0,894.4 26.0,732.5"/>
<polyline fill="none" stroke="#111111" stroke-width="1.80" stroke-linejoin="round" stroke-linecap="round" points="750.8,336.8 1012.0,336.8 1012.0,519.6 750.8,519.6 750.8,336.8"/>
<polyline fill="none" stroke="#bbbbbb" stroke-width="3.00" stroke-linejoin="round" stroke-linecap="round" points="319.8,472.3 320.5,471.8 321.2,471.3 321.9,470.7 322.7,470.1 323.5,469.5 324.3,468.9 325.2,468.2 326.1,467.4 327.0,466.7 328.0,465.9 329.0,465.0 330.1,464.2 331.1,463.3 332.3,462.3 333.4,461.4 334.5,460.4 335.8,459.4 337.0,458.4 338.3,457.3 339.5,456.2 340.9,455.0 342.2,453.9 343.7,452.7 345.2,451.4 346.6,450.2 348.1,448.9 349.6,447.6 351.1,446.3 352.7,444.9 354.4,443.5 356.1,442.1 357.7,440.7 359.3,439.3 361.0,437.9 362.7,436.4 364.4,435.0 366.2,433.4 368.1,431.8 369.9,430.3 371.8,428.7 373.6,427.2 375.4,425.6 377.4,424.0 379.3,422.4 381.2,420.8 383.2,419.1 385.2,417.4 387.3,415.7 389.3,414.1 391.2,412.5 393.2,410.8 395.3,409.1 397.4,407.4 399.4,405.8 401.5,404.1 403.6,402.4 405.7,400.8 407.7,399.2 409.7,397.6 411.8,395.9 413.9,394.3 415.9,392.7 418.0,391.2 420.1,389.5 422.2,387.9 424.2,386.4 426.3,384.8 428.4,383.3 430.3,381.9 432.3,380.5 434.3,379.0 436.3,377.6 438.2,376.2 440.1,374.8 442.1,373.5 444.0,372.2 445.9,370.9 447.8,369.6 449.6,368.4 451.5,367.2 453.3,366.0 455.0,364.9 456.7,363.8 458.5,362.7 460.2,361.7 461.8,360.7 463.4,359.8 465.0,358.8 466.7,357.9 468.3,357.0 469.9,356.1 471.4,355.3 472.9,354.5 474.4,353.8 475.8,353.1 477.1,352.4 478.5,351.8 479.9,351.1 481.3,350.5 482.6,349.9 483.9,349.3 485.2,348.7 486.6,348.1 487.8,347.6 489.0,347.0 490.3,346.5 491.6,346.0 492.8,345.5 493.9,345.0 495.1,344.5 496.2,344.0 497.3,343.6 498.5,343.1 499.6,342.7 500.7,342.3 501.7,341.9 502.9,341.4 504.1,341.0 505.2,340.6 506.4,340.1 507.4,339.7 508.5,339.3 509.6,339.0 510.5,338.6 511.5,338.3 512.5,337.9 513.6,337.6 514.7,337.2 515.7,336.8 516.8,336.5 517.8,336.2 518.8,335.8 519.8,335.5 520.7,335.2 521.7,334.9 522.7,334.6 523.6,334.4 524.5,334.1 525.5,333.8 526.3,333.5 527.2,333.3 528.1,333.0 529.0,332.8 529.8,332.6 530.8,332.3 531.7,332.1 532.6,331.8 533.4,331.6 534.4,331.4 535.2,331.2 536.0,331.0 536.9,330.7 537.8,330.5 538.6,330.3 539.4,330.1 540.3,330.0 541.2,329.7 542.2,329.5 543.0,329.3 543.9,329.1 544.8,329.0 545.7,328.8 546.6,328.6 547.6,328.4 548.4,328.2 549.3,328.1 550.2,327.9 551.2,327.7 552.2,327.6 553.1,327.4 554.1,327.2 555.2,327.1 556.2,326.9 557.2,326.7 558.3,326.6 559.3,326.4 560.4,326.3 561.3,326.2 562.4,326.0 563.4,325.9 564.3,325.8 565.4,325.7 566.5,325.6 567.6,325.5 568.7,325.4 569.8,325.3 570.9,325.2 572.1,325.1 573.3,325.0 574.4,324.9 575.6,324.8 576.8,324.8 577.9,324.7 579.1,324.7 580.2,324.7 581.4,324.6 582.6,324.6 583.8,324.6 585.1,324.6 586.3,324.6 587.7,324.6 589.0,324.6 590.3,324.6 591.6,324.7 592.9,324.7 594.2,324.8 595.6,324.9 596.9,324.9 598.2,325.0 599.6,325.1 601.0,325.3 602.3,325.4 603.8,325.5 605.1,325.7 606.5,325.9 607.9,326.0 609.3,326.2 610.7,326.5 612.2,326.7 613.6,326.9 615.1,327.2 616.5,327.5 617.9,327.7 619.4,328.0 620.8,328.3 622.3,328.7 623.8,329.1 625.2,329.4 626.6,329.8 628.2,330.2 629.7,330.7 631.2,331.1 632.7,331.7 634.2,332.2 635.7,332.8 637.3,333.4 638.9,334.1 640.4,334.8 642.0,335.5 643.5,336.3 645.0,337.0 646.6,337.9 648.3,338.8 649.9,339.7 651.5,340.6 653.1,341.6 654.8,342.6 656.4,343.6 658.0,344.6 659.6,345.7 661.2,346.8 662.9,347.9 664.5,349.1 666.1,350.2 667.7,351.4 669.4,352.6 671.0,353.8 672.6,355.0 674.1,356.2 675.7,357.4 677.2,358.6 678.8,359.9 680.4,361.3 682.0,362.6 683.6,363.9 685.1,365.2 686.6,366.5 688.1,367.8 689.5,369.0 691.0,370.3 692.4,371.6 693.9,372.9 695.3,374.2 696.8,375.5 698.2,376.8 699.6,378.1 700.9,379.3 702.3,380.6 703.7,381.9 705.1,383.2 706.4,384.5 707.6,385.7 708.9,386.9 710.2,388.2 711.5,389.4 712.7,390.6 713.8,391.7 715.0,392.9 716.2,394.1 717.3,395.1 718.4,396.2 719.5,397.3 720.6,398.4 721.7,399.5 722.7,400.5 723.8,401.6 724.8,402.6 725.8,403.6 726.7,404.5 727.6,405.5 728.6,406.4 729.5,407.3 730.4,408.3 731.3,409.2 732.1,410.0 732.9,410.9 733.7,411.6 734.5,412.4 735.2,413.2 735.9,413.9 736.7,414.6 737.4,415.3 738.0,416.0 738.7,416.6 739.3,417.2 739.9,417.9 740.5,418.5 741.1,419.0 741.7,419.6 742.3,420.2 742.8,420.7 743.3,421.3 743.9,421.8 744.4,422.3 744.9,422.8 745.5,423.3 745.9,423.8 746.4,424.2 746.9,424.6 747.3,425.0 747.7,425.5 748.1,425.8 748.6,426.2 748.9,426.6 749.4,426.9 749.7,427.3 750.1,427.6 750.5,427.9 750.8,428.2"/>
<polyline fill="none" stroke="#e8a33d" stroke-width="1.00" stroke-linejoin="round" stroke-linecap="round" stroke-dasharray="1,4" opacity="0.80" points="261.1,805.4 278.1,791.8"/>
<polyline fill="none" stroke="#e8a33d" stroke-width="1.00" stroke-linejoin="round" stroke-linecap="round" stroke-dasharray="1,4" opacity="0.80" points="750.8,428.2 734.9,413.4"/>
<polyline fill="none" stroke="#f3c98b" stroke-width="9.00" stroke-linejoin="round" stroke-linecap="round" opacity="0.85" points="261.1,805.4 262.3,804.3 263.6,803.1 265.0,801.9 266.1,800.6 267.2,799.3 268.3,797.8 269.1,796.4 270.1,794.7 270.7,793.1 271.4,791.4 271.9,789.6 272.4,787.7 272.6,785.9 272.9,783.9 273.0,781.9 273.1,779.9 273.2,777.6 273.3,775.5 273.5,773.3 273.7,771.0 274.0,768.5 274.5,766.2 275.2,763.6"/>
<polyline fill="none" stroke="#f3c98b" stroke-width="9.00" stroke-linejoin="round" stroke-linecap="round" opacity="0.85" points="750.8,428.2 750.1,427.6 749.4,427.0 748.6,426.4 747.8,425.8 747.0,425.1 746.2,424.6 745.3,424.1 744.5,423.6 743.6,423.0 742.7,422.5 741.8,422.1 740.9,421.7 740.0,421.3 738.9,420.9 737.9,420.6 736.9,420.3 735.8,420.0 734.8,419.8 733.7,419.6 732.6,419.5 731.5,419.4 730.3,419.3 729.2,419.3 728.0,419.2 726.8,419.2 725.6,419.3 724.4,419.3 723.1,419.4 721.7,419.4 720.3,419.5 718.9,419.5 717.4,419.6 716.0,419.6 714.4,419.5 712.8,419.4 711.1,419.2 709.3,418.9"/>
<polyline fill="none" stroke="#8fbde0" stroke-width="6.00" stroke-linejoin="round" stroke-linecap="round" points="261.1,805.4 261.5,804.2 261.9,803.1 262.4,801.8 262.9,800.5 263.3,799.2 263.9,797.8 264.4,796.3 264.9,794.7 265.5,793.1 266.1,791.3 266.7,789.6 267.3,787.7 268.0,785.9 268.6,783.8 269.3,781.9 269.9,779.9 270.7,777.6 271.4,775.5 272.1,773.3 272.8,771.0 273.6,768.5 274.4,766.2 275.2,763.6 276.1,761.0 276.9,758.4 277.7,755.7 278.6,753.0 279.5,750.3 280.4,747.4 281.3,744.4 282.3,741.4 283.2,738.6 284.1,735.6 285.1,732.6 286.1,729.6 287.0,726.6 288.1,723.3 289.2,720.0 290.2,716.8 291.3,713.4 292.4,710.2 293.4,706.9 294.6,703.5 295.7,700.1 296.8,696.7 298.0,693.2 299.2,689.6 300.4,685.9 301.6,682.5 302.7,679.1 303.9,675.6 305.2,672.0 306.4,668.4 307.6,664.9 308.9,661.3 310.2,657.6 311.5,654.1 312.7,650.7 314.0,647.2 315.3,643.6 316.6,640.1 317.9,636.7 319.2,633.2 320.5,629.6 321.9,626.1 323.2,622.7 324.6,619.2 325.9,615.9 327.2,612.7 328.5,609.5 329.8,606.2 331.2,602.9 332.5,599.8 333.8,596.7 335.2,593.7 336.5,590.6 337.9,587.6 339.2,584.7 340.5,581.8 341.9,578.9 343.2,576.1 344.4,573.6 345.7,570.9 347.1,568.3 348.3,565.8 349.6,563.4 350.8,561.1 352.1,558.6 353.4,556.2 354.7,553.9 355.9,551.8 357.1,549.6 358.4,547.5 359.6,545.5 360.8,543.6 361.9,541.8 363.1,539.9 364.3,538.1 365.5,536.3 366.6,534.6 367.8,532.9 368.9,531.2 370.1,529.5 371.2,527.9 372.3,526.3 373.5,524.7 374.6,523.1 375.6,521.6 376.6,520.2 377.7,518.7 378.8,517.3 379.8,515.9 380.8,514.4 381.9,513.1 382.8,511.8 383.8,510.5 384.9,509.1 386.0,507.7 387.0,506.3 388.1,504.9 389.1,503.7 390.2,502.3 391.1,501.1 392.1,499.9 393.0,498.8 394.0,497.6 395.0,496.4 396.0,495.1 397.0,493.9 398.0,492.7 399.0,491.5 400.0,490.4 401.0,489.3 401.8,488.2 402.8,487.1 403.8,486.0 404.7,485.0 405.6,484.0 406.6,482.9 407.4,481.9 408.3,481.0 409.1,480.1 410.1,479.0 410.9,478.1 411.9,477.1 412.9,476.1 413.7,475.2 414.6,474.3 415.5,473.3 416.4,472.4 417.3,471.5 418.2,470.6 419.0,469.7 419.9,468.9 420.8,468.0 421.6,467.1 422.6,466.2 423.6,465.2 424.5,464.3 425.5,463.4 426.4,462.5 427.3,461.6 428.3,460.8 429.3,459.8 430.3,458.9 431.2,458.1 432.2,457.2 433.2,456.2 434.3,455.3 435.3,454.4 436.4,453.4 437.6,452.4 438.7,451.5 439.8,450.5 441.0,449.5 442.1,448.6 443.3,447.6 444.4,446.7 445.5,445.8 446.6,444.9 447.7,444.0 449.0,443.1 450.2,442.1 451.4,441.2 452.6,440.3 454.0,439.3 455.2,438.4 456.6,437.4 458.0,436.3 459.3,435.4 460.7,434.4 462.1,433.4 463.4,432.5 464.8,431.6 466.1,430.7 467.5,429.8 469.0,428.9 470.4,427.9 472.0,427.0 473.5,426.0 475.1,425.0 476.7,424.1 478.3,423.2 479.9,422.2 481.6,421.3 483.2,420.4 484.9,419.5 486.6,418.5 488.2,417.7 490.0,416.8 491.8,415.8 493.5,415.0 495.3,414.1 497.1,413.3 498.9,412.5 500.7,411.7 502.6,410.8 504.5,410.0 506.5,409.2 508.4,408.4 510.3,407.7 512.2,406.9 514.2,406.2 516.1,405.5 518.1,404.8 520.2,404.1 522.3,403.4 524.3,402.8 526.3,402.2 528.5,401.5 530.7,400.9 532.8,400.4 535.0,399.9 537.3,399.4 539.6,399.0 542.0,398.6 544.4,398.2 546.8,397.9 549.2,397.6 551.6,397.4 554.0,397.1 556.6,397.0 559.2,396.8 561.9,396.7 564.6,396.6 567.3,396.6 570.1,396.5 572.8,396.6 575.4,396.6 578.2,396.7 581.0,396.8 583.9,396.9 586.7,397.1 589.5,397.2 592.3,397.5 595.3,397.7 598.1,397.9 600.9,398.2 603.7,398.5 606.5,398.8 609.2,399.1 612.2,399.5 615.2,399.9 618.1,400.3 620.9,400.7 623.7,401.1 626.6,401.5 629.3,402.0 632.0,402.4 634.8,402.9 637.4,403.4 640.2,403.9 642.9,404.3 645.7,404.9 648.5,405.4 651.0,405.9 653.6,406.4 656.2,406.9 658.9,407.5 661.5,408.0 664.1,408.6 666.5,409.1 669.0,409.6 671.5,410.1 674.0,410.7 676.3,411.2 678.6,411.7 680.9,412.2 683.2,412.8 685.3,413.3 687.5,413.8 689.7,414.3 691.8,414.8 693.9,415.3 695.9,415.7 698.0,416.2 700.0,416.7 701.9,417.2 703.8,417.6 705.7,418.1 707.5,418.5 709.3,418.9 711.1,419.4 712.8,419.8 714.5,420.2 716.1,420.6 717.6,420.9 719.1,421.3 720.6,421.7 722.0,422.0 723.5,422.3 724.8,422.6 726.1,423.0 727.4,423.3 728.6,423.5 729.8,423.8 731.0,424.1 732.1,424.4 733.3,424.6 734.4,424.9 735.5,425.1 736.5,425.4 737.6,425.6 738.6,425.8 739.6,426.0 740.7,426.2 741.5,426.4 742.4,426.6 743.4,426.8 744.2,427.0 745.0,427.1 745.8,427.3 746.6,427.4 747.3,427.6 748.1,427.7 748.8,427.9 749.5,428.0 750.2,428.1 750.8,428.2"/>
<polyline fill="none" stroke="#d62728" stroke-width="2.20" stroke-linejoin="round" stroke-linecap="round" points="261.1,805.4 262.3,804.3 263.6,803.1 265.0,801.9 266.1,800.6 267.2,799.3 268.3,797.8 269.1,796.4 270.1,794.7 270.7,793.1 271.4,791.4 271.9,789.6 272.4,787.7 272.6,785.9 272.9,783.9 273.0,781.9 273.1,779.9 273.2,777.6 273.3,775.5 273.5,773.3 273.7,771.0 274.0,768.5 274.5,766.2 275.2,763.6 276.1,761.0 276.9,758.4 277.7,755.7 278.6,753.0 279.5,750.3 280.4,747.4 281.3,744.4 282.3,741.4 283.2,738.6 284.1,735.6 285.1,732.6 286.1,729.6 287.0,726.6 288.1,723.3 289.2,720.0 290.2,716.8 291.3,713.4 292.4,710.2 293.4,706.9 294.6,703.5 295.7,700.1 296.8,696.7 298.0,693.2 299.2,689.6 300.4,685.9 301.6,682.5 302.7,679.1 303.9,675.6 305.2,672.0 306.4,668.4 307.6,664.9 308.9,661.3 310.2,657.6 311.5,654.1 312.7,650.7 314.0,647.2 315.3,643.6 316.6,640.1 317.9,636.7 319.2,633.2 320.5,629.6 321.9,626.1 323.2,622.7 324.6,619.2 325.9,615.9 327.2,612.7 328.5,609.5 329.8,606.2 331.2,602.9 332.5,599.8 333.8,596.7 335.2,593.7 336.5,590.6 337.9,587.6 339.2,584.7 340.5,581.8 341.9,578.9 343.2,576.1 344.4,573.6 345.7,570.9 347.1,568.3 348.3,565.8 349.6,563.4 350.8,561.1 352.1,558.6 353.4,556.2 354.7,553.9 355.9,551.8 357.1,549.6 358.4,547.5 359.6,545.5 360.8,543.6 361.9,541.8 363.1,539.9 364.3,538.1 365.5,536.3 366.6,534.6 367.8,532.9 368.9,531.2 370.1,529.5 371.2,527.9 372.3,526.3 373.5,524.7 374.6,523.1 375.6,521.6 376.6,520.2 377.7,518.7 378.8,517.3 379.8,515.9 380.8,514.4 381.9,513.1 382.8,511.8 383.8,510.5 384.9,509.1 386.0,507.7 387.0,506.3 388.1,504.9 389.1,503.7 390.2,502.3 391.1,501.1 392.1,499.9 393.0,498.8 394.0,497.6 395.0,496.4 396.0,495.1 397.0,493.9 398.0,492.7 399.0,491.5 400.0,490.4 401.0,489.3 401.8,488.2 402.8,487.1 403.8,486.0 404.7,485.0 405.6,484.0 406.6,482.9 407.4,481.9 408.3,481.0 409.1,480.1 410.1,479.0 410.9,478.1 411.9,477.1 412.9,476.1 413.7,475.2 414.6,474.3 415.5,473.3 416.4,472.4 417.3,471.5 418.2,470.6 419.0,469.7 419.9,468.9 420.8,468.0 421.6,467.1 422.6,466.2 423.6,465.2 424.5,464.3 425.5,463.4 426.4,462.5 427.3,461.6 428.3,460.8 429.3,459.8 430.3,458.9 431.2,458.1 432.2,457.2 433.2,456.2 434.3,455.3 435.3,454.4 436.4,453.4 437.6,452.4 438.7,451.5 439.8,450.5 441.0,449.5 442.1,448.6 443.3,447.6 444.4,446.7 445.5,445.8 446.6,444.9 447.7,444.0 449.0,443.1 450.2,442.1 451.4,441.2 452.6,440.3 454.0,439.3 455.2,438.4 456.6,437.4 458.0,436.3 459.3,435.4 460.7,434.4 462.1,433.4 463.4,432.5 464.8,431.6 466.1,430.7 467.5,429.8 469.0,428.9 470.4,427.9 472.0,427.0 473.5,426.0 475.1,425.0 476.7,424.1 478.3,423.2 479.9,422.2 481.6,421.3 483.2,420.4 484.9,419.5 486.6,418.5 488.2,417.7 490.0,416.8 491.8,415.8 493.5,415.0 495.3,414.1 497.1,413.3 498.9,412.5 500.7,411.7 502.6,410.8 504.5,410.0 506.5,409.2 508.4,408.4 510.3,407.7 512.2,406.9 514.2,406.2 516.1,405.5 518.1,404.8 520.2,404.1 522.3,403.4 524.3,402.8 526.3,402.2 528.5,401.5 530.7,400.9 532.8,400.4 535.0,399.9 537.3,399.4 539.6,399.0 542.0,398.6 544.4,398.2 546.8,397.9 549.2,397.6 551.6,397.4 554.0,397.1 556.6,397.0 559.2,396.8 561.9,396.7 564.6,396.6 567.3,396.6 570.1,396.5 572.8,396.6 575.4,396.6 578.2,396.7 581.0,396.8 583.9,396.9 586.7,397.1 589.5,397.2 592.3,397.5 595.3,397.7 598.1,397.9 600.9,398.2 603.7,398.5 606.5,398.8 609.2,399.1 612.2,399.5 615.2,399.9 618.1,400.3 620.9,400.7 623.7,401.1 626.6,401.5 629.3,402.0 632.0,402.4 634.8,402.9 637.4,403.4 640.2,403.9 642.9,404.3 645.7,404.9 648.5,405.4 651.0,405.9 653.6,406.4 656.2,406.9 658.9,407.5 661.5,408.0 664.1,408.6 666.5,409.1 669.0,409.6 671.5,410.1 674.0,410.7 676.3,411.2 678.6,411.7 680.9,412.2 683.2,412.8 685.3,413.3 687.5,413.8 689.7,414.3 691.8,414.8 693.9,415.3 695.9,415.7 698.0,416.2 700.0,416.7 701.9,417.2 703.8,417.6 705.7,418.1 707.5,418.5 709.3,418.9 711.1,419.2 712.8,419.4 714.4,419.5 716.0,419.6 717.4,419.6 718.9,419.5 720.3,419.5 721.7,419.4 723.1,419.4 724.4,419.3 725.6,419.3 726.8,419.2 728.0,419.2 729.2,419.3 730.3,419.3 731.5,419.4 732.6,419.5 733.7,419.6 734.8,419.8 735.8,420.0 736.9,420.3 737.9,420.6 738.9,420.9 740.0,421.3 740.9,421.7 741.8,422.1 742.7,422.5 743.6,423.0 744.5,423.6 745.3,424.1 746.2,424.6 747.0,425.1 747.8,425.8 748.6,426.4 749.4,427.0 750.1,427.6 750.8,428.2"/>
<polyline fill="none" stroke="#2ca02c" stroke-width="2.00" stroke-linejoin="round" stroke-linecap="round" points="261.1,805.4 262.0,804.6 263.0,803.9 264.0,803.0 265.1,802.2 266.2,801.3 267.4,800.3 268.6,799.3 270.0,798.2 271.3,797.1 272.7,795.8 274.1,794.6 275.6,793.3 277.1,791.9 278.7,790.5 280.3,789.1 281.9,787.6 283.7,786.0 285.4,784.4 287.2,782.7 289.0,781.1 290.9,779.2 292.8,777.4 294.9,775.4 296.9,773.4 298.9,771.4 301.0,769.3 303.1,767.2 305.3,765.0 307.5,762.7 309.8,760.3 312.1,757.9 314.3,755.5 316.6,753.1 318.8,750.6 321.1,748.1 323.4,745.6 325.9,742.8 328.5,739.9 330.9,737.2 333.4,734.2 335.8,731.4 338.3,728.6 340.8,725.5 343.4,722.5 345.9,719.5 348.5,716.4 351.2,713.1 353.9,709.8 356.4,706.6 358.9,703.5 361.5,700.2 364.1,696.9 366.8,693.5 369.3,690.3 371.9,686.8 374.6,683.4 377.1,680.0 379.6,676.7 382.2,673.4 384.7,670.0 387.3,666.6 389.7,663.3 392.2,659.9 394.8,656.4 397.3,653.0 399.8,649.6 402.3,646.2 404.7,642.9 406.9,639.8 409.2,636.5 411.6,633.3 413.9,630.1 416.2,626.9 418.3,623.9 420.5,620.8 422.7,617.7 424.9,614.7 427.0,611.7 429.0,608.8 431.1,605.8 433.1,603.0 434.9,600.5 436.8,597.8 438.8,595.0 440.6,592.5 442.3,590.0 444.0,587.7 445.8,585.1 447.5,582.7 449.2,580.2 450.8,578.0 452.4,575.8 454.0,573.5 455.5,571.4 456.9,569.4 458.3,567.5 459.7,565.6 461.1,563.6 462.5,561.7 463.8,560.0 465.1,558.1 466.4,556.3 467.8,554.4 468.9,552.8 470.2,551.1 471.5,549.3 472.7,547.6 473.9,546.0 475.0,544.5 476.1,542.9 477.2,541.4 478.3,539.9 479.5,538.3 480.5,536.8 481.6,535.5 482.6,534.1 483.7,532.5 484.8,531.1 485.9,529.6 487.0,528.1 488.0,526.7 489.1,525.3 490.1,524.0 491.0,522.7 492.0,521.5 492.9,520.2 493.9,518.9 494.9,517.5 496.0,516.2 496.9,514.9 497.9,513.6 498.8,512.4 499.8,511.2 500.6,510.1 501.5,508.9 502.5,507.7 503.3,506.6 504.1,505.5 505.1,504.3 505.9,503.3 506.7,502.3 507.5,501.3 508.4,500.1 509.1,499.2 510.1,498.0 510.9,496.9 511.7,495.9 512.4,495.0 513.3,493.9 514.1,493.0 514.9,492.0 515.7,491.0 516.4,490.0 517.2,489.1 518.0,488.2 518.7,487.2 519.6,486.2 520.5,485.1 521.3,484.1 522.1,483.1 522.9,482.2 523.7,481.2 524.5,480.3 525.4,479.2 526.2,478.2 527.0,477.3 527.8,476.3 528.7,475.3 529.6,474.3 530.5,473.2 531.3,472.2 532.3,471.1 533.2,470.0 534.1,469.0 535.1,467.9 536.0,466.9 537.0,465.8 537.8,464.8 538.8,463.8 539.7,462.8 540.5,461.8 541.5,460.7 542.5,459.7 543.5,458.6 544.4,457.6 545.4,456.5 546.4,455.5 547.5,454.3 548.5,453.2 549.5,452.1 550.6,451.0 551.7,449.9 552.7,448.9 553.7,447.8 554.7,446.8 555.8,445.7 556.9,444.6 558.0,443.6 559.1,442.4 560.2,441.4 561.4,440.2 562.6,439.1 563.7,438.0 564.9,436.9 566.1,435.8 567.2,434.7 568.5,433.6 569.7,432.5 570.8,431.5 572.1,430.3 573.4,429.2 574.6,428.2 575.8,427.1 577.1,426.1 578.3,425.0 579.6,424.0 580.9,422.9 582.2,421.9 583.5,420.8 584.8,419.8 586.1,418.7 587.4,417.8 588.8,416.8 590.1,415.8 591.4,414.8 592.8,413.8 594.1,412.8 595.5,411.9 596.8,411.0 598.2,410.0 599.7,409.0 601.1,408.1 602.5,407.2 604.0,406.3 605.5,405.4 607.0,404.5 608.6,403.6 610.1,402.8 611.7,402.0 613.3,401.1 614.8,400.3 616.5,399.5 618.2,398.7 619.9,397.9 621.7,397.2 623.4,396.4 625.2,395.7 627.0,395.0 628.7,394.4 630.5,393.7 632.3,393.1 634.2,392.5 636.0,391.9 637.8,391.4 639.7,390.9 641.6,390.5 643.5,390.0 645.3,389.6 647.2,389.3 649.0,389.0 650.9,388.7 652.8,388.4 654.8,388.2 656.7,388.0 658.7,387.9 660.6,387.8 662.4,387.8 664.3,387.7 666.2,387.8 668.0,387.8 669.8,387.9 671.7,388.0 673.5,388.2 675.4,388.4 677.3,388.6 679.1,388.9 680.9,389.2 682.7,389.5 684.5,389.9 686.4,390.3 688.2,390.8 689.8,391.2 691.6,391.7 693.3,392.2 695.1,392.8 696.7,393.4 698.3,393.9 699.9,394.6 701.6,395.2 703.1,395.8 704.6,396.5 706.2,397.2 707.7,397.9 709.2,398.6 710.6,399.3 712.1,400.1 713.6,400.8 715.0,401.6 716.3,402.3 717.7,403.1 719.0,403.9 720.3,404.7 721.6,405.5 722.8,406.3 724.1,407.0 725.2,407.8 726.3,408.6 727.4,409.3 728.5,410.1 729.5,410.8 730.6,411.5 731.6,412.3 732.6,413.0 733.5,413.7 734.4,414.3 735.3,415.0 736.1,415.7 736.9,416.4 737.8,417.1 738.6,417.7 739.4,418.4 740.2,419.0 741.0,419.6 741.7,420.3 742.5,420.9 743.2,421.6 743.9,422.1 744.5,422.7 745.2,423.3 745.8,423.8 746.4,424.4 747.0,424.9 747.6,425.4 748.2,425.9 748.8,426.4 749.3,426.9 749.8,427.3 750.3,427.8 750.8,428.2"/>
<polyline fill="none" stroke="#ff7f0e" stroke-width="2.00" stroke-linejoin="round" stroke-linecap="round" points="261.1,805.4 261.6,804.4 262.2,803.3 262.8,802.2 263.5,801.0 264.1,799.8 264.8,798.5 265.5,797.1 266.3,795.6 267.1,794.2 267.9,792.6 268.7,791.0 269.6,789.3 270.5,787.5 271.4,785.7 272.3,783.9 273.3,782.0 274.3,779.9 275.3,778.0 276.3,775.9 277.3,773.8 278.4,771.5 279.5,769.3 280.7,766.9 281.8,764.4 283.0,762.0 284.2,759.5 285.4,757.0 286.6,754.3 287.9,751.7 289.2,748.8 290.5,746.0 291.8,743.3 293.1,740.5 294.5,737.6 295.8,734.7 297.1,731.8 298.6,728.7 300.1,725.5 301.5,722.4 303.0,719.2 304.4,716.1 305.9,712.9 307.4,709.6 308.9,706.3 310.4,703.0 312.0,699.6 313.6,696.1 315.2,692.5 316.7,689.2 318.3,685.9 319.9,682.4 321.5,678.9 323.1,675.3 324.7,671.9 326.4,668.3 328.0,664.7 329.7,661.3 331.2,657.9 332.9,654.5 334.5,650.9 336.2,647.4 337.8,644.0 339.4,640.6 341.1,637.0 342.8,633.6 344.4,630.1 346.1,626.7 347.7,623.4 349.2,620.2 350.8,617.0 352.5,613.7 354.1,610.5 355.7,607.3 357.2,604.3 358.8,601.2 360.4,598.1 362.0,595.1 363.5,592.2 365.0,589.3 366.6,586.3 368.1,583.6 369.5,581.0 371.0,578.4 372.5,575.7 373.9,573.2 375.2,570.7 376.6,568.4 378.0,566.0 379.4,563.6 380.9,561.2 382.2,559.0 383.5,556.9 384.9,554.7 386.2,552.7 387.4,550.7 388.6,548.9 389.9,547.0 391.1,545.2 392.4,543.3 393.5,541.7 394.7,539.9 395.9,538.2 397.2,536.4 398.3,534.8 399.4,533.2 400.6,531.5 401.8,529.9 402.8,528.4 403.9,526.9 405.0,525.4 406.0,524.0 407.1,522.5 408.2,521.1 409.2,519.7 410.2,518.3 411.2,517.0 412.3,515.6 413.3,514.2 414.4,512.8 415.5,511.3 416.5,510.0 417.6,508.7 418.5,507.5 419.5,506.3 420.4,505.1 421.4,503.9 422.4,502.6 423.4,501.3 424.4,500.1 425.4,498.9 426.4,497.6 427.4,496.5 428.3,495.3 429.2,494.3 430.2,493.2 431.2,492.0 432.0,491.0 432.9,490.0 433.9,488.8 434.7,487.9 435.5,486.9 436.4,485.9 437.3,484.9 438.1,483.9 439.1,482.9 440.0,481.9 440.9,480.9 441.7,480.0 442.6,479.0 443.4,478.1 444.3,477.2 445.2,476.2 446.0,475.3 446.8,474.5 447.7,473.6 448.5,472.7 449.5,471.7 450.4,470.7 451.3,469.8 452.2,468.8 453.1,468.0 454.0,467.0 454.9,466.2 455.9,465.1 456.8,464.3 457.7,463.4 458.6,462.5 459.7,461.5 460.7,460.5 461.7,459.6 462.7,458.6 463.8,457.6 464.9,456.6 465.9,455.6 467.1,454.6 468.1,453.6 469.2,452.7 470.3,451.7 471.4,450.8 472.4,449.9 473.4,449.0 474.6,448.0 475.8,447.0 476.9,446.0 478.0,445.1 479.3,444.0 480.5,443.1 481.7,442.1 483.0,441.0 484.3,440.0 485.6,439.0 486.9,438.0 488.1,437.1 489.4,436.1 490.7,435.2 492.0,434.2 493.3,433.2 494.7,432.3 496.1,431.2 497.5,430.3 499.0,429.2 500.5,428.2 501.9,427.3 503.4,426.3 505.0,425.3 506.5,424.4 508.0,423.4 509.6,422.4 511.1,421.5 512.7,420.5 514.4,419.5 516.0,418.7 517.6,417.7 519.2,416.8 520.9,416.0 522.6,415.1 524.3,414.2 526.0,413.3 527.8,412.4 529.6,411.6 531.3,410.7 533.1,409.9 534.8,409.1 536.6,408.3 538.4,407.6 540.3,406.8 542.2,406.0 544.0,405.3 545.8,404.6 547.8,403.9 549.8,403.2 551.7,402.6 553.7,401.9 555.7,401.3 557.8,400.8 560.0,400.2 562.2,399.7 564.3,399.2 566.5,398.8 568.7,398.4 570.9,398.0 573.2,397.7 575.6,397.3 578.0,397.0 580.4,396.8 582.8,396.5 585.4,396.3 587.8,396.1 590.2,396.0 592.7,395.9 595.2,395.8 597.8,395.7 600.4,395.6 602.8,395.6 605.5,395.6 608.1,395.7 610.7,395.7 613.2,395.8 615.8,396.0 618.3,396.1 620.8,396.2 623.4,396.4 626.1,396.7 628.8,396.9 631.4,397.2 633.9,397.4 636.5,397.7 639.0,398.0 641.5,398.4 644.0,398.7 646.4,399.1 649.0,399.5 651.4,399.9 653.9,400.3 656.5,400.7 658.8,401.2 661.1,401.6 663.5,402.1 666.0,402.6 668.4,403.1 670.8,403.6 673.0,404.1 675.3,404.7 677.5,405.2 679.8,405.7 682.0,406.3 684.0,406.8 686.1,407.3 688.3,407.9 690.3,408.4 692.2,409.0 694.2,409.5 696.2,410.1 698.1,410.6 700.0,411.2 701.9,411.7 703.8,412.3 705.6,412.8 707.2,413.4 709.0,413.9 710.7,414.4 712.3,415.0 714.0,415.5 715.6,416.0 717.2,416.5 718.6,417.0 720.0,417.5 721.4,418.0 722.8,418.4 724.1,418.9 725.5,419.3 726.7,419.8 727.9,420.2 729.1,420.6 730.2,421.0 731.3,421.4 732.4,421.8 733.5,422.1 734.5,422.5 735.6,422.9 736.6,423.2 737.5,423.6 738.5,423.9 739.5,424.3 740.4,424.6 741.4,425.0 742.2,425.2 743.0,425.5 743.9,425.8 744.6,426.1 745.4,426.4 746.1,426.6 746.9,426.9 747.6,427.1 748.3,427.4 748.9,427.6 749.6,427.8 750.2,428.0 750.8,428.2"/>
<polyline fill="none" stroke="#e8a33d" stroke-width="2.00" stroke-linejoin="round" stroke-linecap="round" stroke-dasharray="2,3" opacity="0.95" points="257.1,760.5 292.2,770.8"/>
<polyline fill="none" stroke="#e8a33d" stroke-width="2.00" stroke-linejoin="round" stroke-linecap="round" stroke-dasharray="2,3" opacity="0.95" points="713.4,401.1 705.9,436.8"/>
<path d="M 261.1 805.4 L 287.7 784.2 M 283.7 793.7 L 287.7 784.2 L 277.5 785.9" fill="none" stroke="#e07b00" stroke-width="1.6"/>
<path d="M 750.8 428.2 L 726.0 405.0 M 736.0 407.5 L 726.0 405.0 L 729.1 414.8" fill="none" stroke="#e07b00" stroke-width="1.6"/>
<circle cx="261.1" cy="805.4" r="4.20" fill="#111111"/>
<circle cx="750.8" cy="428.2" r="4.20" fill="#111111"/>
<line x1="18" y1="1084" x2="48" y2="1084" stroke="#bbbbbb" stroke-width="3.00"/>
<text x="54" y="1088" font-family="-apple-system,Helvetica,Arial" font-size="12" fill="#333">as drawn</text>
<line x1="129" y1="1084" x2="159" y2="1084" stroke="#8fbde0" stroke-width="6.00"/>
<text x="165" y="1088" font-family="-apple-system,Helvetica,Arial" font-size="12" fill="#333">carried rigidly (U)</text>
<line x1="312" y1="1084" x2="342" y2="1084" stroke="#d62728" stroke-width="2.20"/>
<text x="348" y="1088" font-family="-apple-system,Helvetica,Arial" font-size="12" fill="#333">Local</text>
<line x1="403" y1="1084" x2="433" y2="1084" stroke="#2ca02c" stroke-width="2.20"/>
<text x="439" y="1088" font-family="-apple-system,Helvetica,Arial" font-size="12" fill="#333">Always-cubic</text>
<line x1="540" y1="1084" x2="570" y2="1084" stroke="#ff7f0e" stroke-width="2.20"/>
<text x="576" y="1088" font-family="-apple-system,Helvetica,Arial" font-size="12" fill="#333">Morph</text>
<line x1="631" y1="1084" x2="661" y2="1084" stroke="#f3c98b" stroke-width="9.00"/>
<text x="667" y="1088" font-family="-apple-system,Helvetica,Arial" font-size="12" fill="#333">Local blend region</text>
</svg>
