<svg xmlns="http://www.w3.org/2000/svg" width="1100" height="1067" viewBox="0 0 1100 1067">
<rect x="0" y="0" width="1100" height="1067" fill="#ffffff"/>
<text x="18" y="26" font-family="-apple-system,Helvetica,Arial" font-size="18" font-weight="600" fill="#111">wiggle/chord-flip  [W7: converted to centre bind]</text>
<text x="18" y="46" font-family="ui-monospace,Menlo,monospace" font-size="12" fill="#444">A moves past B; both stored edge facings now oppose the chord</text>
<text x="18" y="63" font-family="ui-monospace,Menlo,monospace" font-size="12" fill="#444">ends: A centre(derived) obliq 0.0deg   B centre(derived) obliq 0.0deg</text>
<text x="18" y="80" font-family="ui-monospace,Menlo,monospace" font-size="12" fill="#444">rest 320 samples, len 396.7u, chord 331.7u   |   warped L' 406.1u, scale 1.024</text>
<text x="18" y="97" font-family="ui-monospace,Menlo,monospace" font-size="12" fill="#444">blend: turn 40.5/8.8deg -&gt; length 0.150/0.150 of arc (60.9/60.9u), stub 91.4/91.4u</text>
<text x="18" y="114" font-family="ui-monospace,Menlo,monospace" font-size="12" fill="#444">W4 facing dev (start/end deg): A 10.0/29.1   A+C 0.1/0.2   (A is a centre bind: boundary crossing 32.4deg, no facing bar)</text>
<text x="18" y="131" font-family="ui-monospace,Menlo,monospace" font-size="12" fill="#444">W5 A+C new cusps blend+middle 0+0 (min blend radius n/a, both blend regions are hidden by the boundary clip)   |   overshoot 0</text>
<text x="18" y="148" font-family="ui-monospace,Menlo,monospace" font-size="12" fill="#444">cost: blend spans 30% of arc, mean deviation there 4.26u, untouched middle 0.00u   |   ink kept after clipping 51%</text>
<polyline fill="none" stroke="#c9c9c9" stroke-width="1.40" stroke-linejoin="round" stroke-linecap="round" stroke-dasharray="6,4" points="26.0,591.1 193.9,591.1 193.9,706.8 26.0,706.8 26.0,591.1"/>
<polyline fill="none" stroke="#c9c9c9" stroke-width="1.40" stroke-linejoin="round" stroke-linecap="round" stroke-dasharray="6,4" points="501.9,546.3 688.5,546.3 688.5,677.0 501.9,677.0 501.9,546.3"/>
<polyline fill="none" stroke="#111111" stroke-width="1.80" stroke-linejoin="round" stroke-linecap="round" points="819.1,479.2 987.0,479.2 987.0,594.9 819.1,594.9 819.1,479.2"/>
<polyline fill="none" stroke="#111111" stroke-width="1.80" stroke-linejoin="round" stroke-linecap="round" points="501.9,546.3 688.5,546.3 688.5,677.0 501.9,677.0 501.9,546.3"/>
<polyline fill="none" stroke="#bbbbbb" stroke-width="3.00" stroke-linejoin="round" stroke-linecap="round" points="193.9,643.2 195.7,642.5 196.7,642.2 197.6,641.9 198.6,641.7 199.5,641.4 200.4,641.2 201.5,641.0 202.4,640.8 203.4,640.6 204.5,640.4 205.6,640.3 206.6,640.2 207.6,640.1 208.7,640.0 209.8,639.9 210.9,639.8 212.0,639.7 213.1,639.6 214.2,639.6 215.3,639.5 216.4,639.4 217.6,639.3 218.7,639.2 219.9,639.0 221.1,638.9 222.2,638.7 223.3,638.5 224.6,638.3 225.7,638.0 226.8,637.7 228.0,637.3 229.2,636.9 230.3,636.5 231.5,636.0 232.6,635.5 233.7,634.9 234.9,634.2 236.0,633.5 237.1,632.7 238.2,631.9 239.3,631.0 240.5,630.0 241.6,629.0 242.8,627.9 243.9,626.7 245.0,625.6 246.2,624.3 247.2,623.0 248.4,621.7 249.5,620.3 250.7,618.8 251.7,617.4 252.9,616.0 253.9,614.6 254.9,613.2 256.0,611.7 257.1,610.3 258.1,608.9 259.2,607.5 260.3,606.1 261.4,604.8 262.4,603.5 263.5,602.1 264.5,600.9 265.6,599.7 266.6,598.6 267.7,597.5 268.8,596.4 269.9,595.5 270.9,594.6 272.0,593.8 273.1,593.1 274.1,592.4 275.2,591.8 276.3,591.3 277.3,590.9 278.4,590.5 279.5,590.3 280.5,590.0 281.5,589.9 282.6,589.9 283.7,589.9 284.7,589.9 285.7,590.1 286.8,590.3 287.8,590.6 288.8,590.9 289.9,591.3 291.0,591.8 292.0,592.3 293.0,592.8 294.0,593.4 295.0,594.0 296.0,594.7 297.0,595.3 298.0,596.0 298.9,596.7 299.9,597.5 300.9,598.2 301.8,599.0 302.7,599.7 303.6,600.5 304.6,601.3 305.6,602.1 306.4,602.9 307.3,603.6 308.2,604.4 309.1,605.1 309.9,605.8 310.8,606.5 311.5,607.2 312.4,607.9 313.3,608.6 314.1,609.4 314.9,610.0 315.7,610.6 316.4,611.2 317.2,611.8 318.0,612.4 318.8,613.0 319.5,613.5 320.3,614.1 321.1,614.6 321.8,615.0 322.5,615.4 323.2,615.9 323.9,616.2 324.6,616.5 325.3,616.9 326.0,617.2 326.7,617.5 327.3,617.7 327.9,617.9 328.6,618.1 329.3,618.3 329.9,618.4 330.6,618.6 331.2,618.7 331.9,618.8 332.5,618.8 333.1,618.8 333.7,618.8 334.4,618.8 335.0,618.7 335.7,618.6 336.3,618.5 337.0,618.3 337.6,618.2 338.3,617.9 339.0,617.7 339.6,617.4 340.3,617.1 340.9,616.8 341.4,616.4 342.0,616.1 342.7,615.7 343.4,615.2 344.0,614.8 344.6,614.3 345.3,613.7 346.0,613.1 346.7,612.5 347.3,611.8 348.0,611.2 348.6,610.5 349.2,609.8 349.9,609.0 350.6,608.2 351.2,607.4 351.9,606.5 352.6,605.5 353.3,604.5 354.0,603.5 354.8,602.4 355.5,601.3 356.2,600.3 356.9,599.2 357.6,598.1 358.3,597.0 359.0,595.9 359.8,594.7 360.5,593.6 361.4,592.3 362.1,591.2 362.9,590.0 363.7,588.8 364.5,587.6 365.3,586.4 366.2,585.2 367.0,584.0 367.9,582.8 368.7,581.6 369.7,580.5 370.5,579.4 371.4,578.4 372.4,577.4 373.4,576.4 374.3,575.6 375.2,574.8 376.2,574.0 377.1,573.4 378.2,572.8 379.2,572.2 380.2,571.8 381.3,571.4 382.4,571.1 383.6,570.9 384.6,570.8 385.7,570.7 387.0,570.8 388.1,571.0 389.3,571.2 390.5,571.5 391.7,572.0 392.9,572.5 394.2,573.1 395.4,573.8 396.7,574.5 397.9,575.3 399.3,576.3 400.7,577.3 402.0,578.4 403.3,579.5 404.6,580.6 405.9,581.9 407.3,583.2 408.6,584.4 410.0,585.8 411.5,587.3 412.9,588.7 414.3,590.1 415.8,591.6 417.2,592.9 418.5,594.2 419.9,595.6 421.2,596.9 422.5,598.1 423.9,599.3 425.2,600.5 426.5,601.6 427.9,602.7 429.2,603.7 430.5,604.7 431.8,605.6 433.1,606.5 434.5,607.3 435.7,608.1 436.9,608.7 438.2,609.3 439.4,609.8 440.6,610.2 441.9,610.6 443.2,611.0 444.3,611.2 445.5,611.4 446.7,611.5 447.8,611.6 449.0,611.6 450.2,611.6 451.3,611.5 452.4,611.4 453.4,611.3 454.6,611.1 455.7,610.9 456.7,610.7 457.8,610.5 458.8,610.2 459.8,609.9 460.8,609.7 461.9,609.3 462.9,609.0 463.9,608.7 464.9,608.4 465.8,608.1 466.8,607.8 467.8,607.5 468.7,607.3 469.7,607.0 470.7,606.8 471.6,606.6 472.4,606.4 473.3,606.2 474.2,606.0 475.1,605.9 476.0,605.8 476.8,605.7 477.7,605.6 478.6,605.6 479.5,605.5 480.4,605.5 481.2,605.5 482.1,605.6 482.9,605.6 483.7,605.7 484.6,605.8 485.4,605.9 486.1,606.0 487.0,606.2 487.7,606.3 488.5,606.5 489.3,606.7 490.0,606.9 490.8,607.1 491.5,607.4 492.2,607.6 492.9,607.8 493.7,608.1 494.4,608.4 495.2,608.7 496.0,609.0 496.8,609.3 497.5,609.6 498.2,610.0 499.0,610.3 499.6,610.6 500.4,611.0 501.9,611.7"/>
<polyline fill="none" stroke="#f0a6a6" stroke-width="2.00" stroke-linejoin="round" stroke-linecap="round" stroke-dasharray="2,4" points="987.0,531.2 989.2,531.2 991.4,531.2 993.4,531.2 995.3,531.3 997.1,531.5 998.8,531.7 1000.4,532.0 1002.0,532.3 1003.4,532.7 1004.8,533.1 1006.0,533.6 1007.1,534.1 1008.1,534.7 1009.0,535.3 1009.8,535.9 1010.4,536.6 1011.0,537.4 1011.4,538.2 1011.7,539.0 1012.0,539.8 1012.0,540.7 1012.0,541.6 1011.8,542.6 1011.5,543.6 1011.2,544.6 1010.7,545.7 1010.1,546.8 1009.4,547.9 1008.6,549.1 1007.7,550.3 1006.7,551.5 1005.6,552.7 1004.3,554.1 1003.0,555.5 1001.5,556.8 1000.1,558.2 998.3,559.7 996.5,561.3 994.7,562.8 992.5,564.5 990.3,566.2 988.0,567.9 985.3,569.8 982.5,571.8 979.4,573.9 976.3,575.9 973.0,577.9 969.4,580.1 965.9,582.2 962.0,584.5 957.9,586.7 953.7,589.0 949.5,591.2 945.1,593.4 940.9,595.5 936.6,597.5 932.2,599.6 927.9,601.5 923.5,603.5 919.1,605.3 914.6,607.2 910.5,608.8 906.3,610.4 902.2,611.9 898.2,613.4 894.4,614.7 890.8,615.8 887.1,617.0 883.5,618.1 880.4,619.0 877.3,619.8 874.3,620.6 871.6,621.2 869.0,621.8 866.5,622.3 864.1,622.8 861.9,623.1 859.8,623.5 857.7,623.7 855.7,623.9 853.9,624.0 852.0,624.1 850.3,624.1 848.4,624.1 846.9,624.0 845.2,623.8 843.5,623.5 841.8,623.1 840.1,622.6 838.3,622.0 836.7,621.4 835.1,620.7 833.5,619.9 831.7,619.0 830.0,618.1 828.4,617.2 826.8,616.2 825.2,615.2 823.6,614.1 822.0,613.0 820.4,611.9 818.9,610.9 817.4,609.7 815.7,608.6 814.1,607.4 812.6,606.3 811.2,605.2 809.7,604.1 808.3,603.0 806.8,602.0 805.4,601.0 804.1,600.0 802.6,598.9 801.2,597.9 799.7,596.8 798.5,595.9 797.2,595.0 795.9,594.1 794.6,593.3 793.3,592.4 792.0,591.6 790.8,590.9 789.5,590.1 788.2,589.4 787.0,588.8 785.9,588.2 784.6,587.6 783.5,587.1 782.4,586.7 781.2,586.3 780.1,585.9 779.0,585.5 778.0,585.2 777.0,585.0 775.9,584.8 774.9,584.5 773.9,584.4 772.8,584.3 771.7,584.2 770.7,584.2 769.8,584.2 768.8,584.2 767.8,584.3 766.8,584.4 765.9,584.5 764.8,584.8 763.9,585.0 762.9,585.3 761.9,585.7 760.8,586.1 759.8,586.5 758.9,587.0 757.8,587.5 756.9,588.0 756.0,588.6 755.1,589.2 754.1,589.9 753.1,590.7 752.2,591.4 751.2,592.3 750.1,593.2 749.0,594.3 748.1,595.3 747.1,596.3 746.1,597.4 745.2,598.5 744.2,599.6 743.2,600.9 742.2,602.3 741.3,603.7 740.2,605.2 739.3,606.7 738.2,608.3 737.1,610.1 736.1,611.9 735.0,613.7 734.0,615.3 733.0,617.1 731.9,619.0 730.9,620.7 729.9,622.5 728.8,624.6 727.7,626.4 726.6,628.4 725.4,630.4 724.4,632.2 723.2,634.2 722.0,636.3 720.9,638.1 719.6,640.2 718.4,642.1 717.1,644.1 715.8,646.0 714.5,648.0 713.2,649.7 711.8,651.4 710.3,653.0 708.7,654.6 707.1,656.0 705.5,657.2 703.9,658.4 702.3,659.4 700.6,660.5 698.7,661.5 697.1,662.4 695.1,663.2 693.3,664.0 691.3,664.7 689.4,665.4 687.5,665.9 685.1,666.5 683.0,667.0 680.6,667.5 678.1,668.0 675.5,668.3 672.6,668.7 669.5,669.0 666.5,669.3 663.0,669.6 659.6,669.7 655.7,669.9 651.6,669.9 647.4,669.9 643.1,669.8 638.7,669.7 634.0,669.4 629.0,669.1 624.2,668.7 619.0,668.1 613.5,667.5 608.1,666.8 602.6,666.0 597.1,665.2 591.9,664.3 586.8,663.3 581.7,662.3 576.6,661.3 571.9,660.3 567.0,659.1 562.3,658.0 557.8,656.9 553.5,655.8 549.4,654.6 545.3,653.5 541.4,652.3 537.5,651.2 533.7,650.0 530.4,648.9 527.3,647.8 524.3,646.8 521.4,645.8 518.6,644.8 515.9,643.8 513.2,642.8 510.9,641.9 508.6,641.0 506.2,640.1 504.2,639.3 502.0,638.4 499.9,637.5 498.0,636.8 496.3,636.0 494.5,635.2 492.7,634.3 491.0,633.5 489.5,632.8 488.0,632.0 486.6,631.3 485.2,630.6 483.9,629.8 482.6,629.1 481.4,628.4 480.3,627.7 479.4,627.0 478.4,626.4 477.6,625.7 476.7,625.1 476.1,624.5 475.4,623.8 474.8,623.2 474.4,622.7 474.0,622.1 473.6,621.5 473.3,621.0 473.1,620.4 473.0,620.0 472.9,619.4 472.9,618.9 472.9,618.3 473.0,617.9 473.2,617.4 473.5,616.9 473.7,616.5 474.2,616.1 474.6,615.7 475.1,615.3 475.6,615.0 476.2,614.7 476.8,614.4 477.5,614.1 478.2,613.9 479.1,613.6 479.9,613.4 480.8,613.1 481.7,612.9 482.7,612.8 483.7,612.6 484.8,612.4 486.0,612.3 487.4,612.1 488.7,612.0 490.1,611.9 491.7,611.8 493.2,611.7 494.8,611.7 496.4,611.7 498.2,611.6 500.0,611.6 501.9,611.7"/>
<polyline fill="none" stroke="#e8a33d" stroke-width="1.00" stroke-linejoin="round" stroke-linecap="round" stroke-dasharray="1,4" opacity="0.80" points="903.1,537.0 875.5,543.7"/>
<polyline fill="none" stroke="#e8a33d" stroke-width="1.00" stroke-linejoin="round" stroke-linecap="round" stroke-dasharray="1,4" opacity="0.80" points="595.2,611.7 622.8,605.0"/>
<polyline fill="none" stroke="#d62728" stroke-width="2.80" stroke-linejoin="round" stroke-linecap="round" opacity="0.95" points="833.6,594.9 831.7,597.0 830.7,598.0 829.8,598.8 828.8,599.6 827.8,600.4 826.8,601.0 825.7,601.6 824.7,602.1 823.7,602.5 822.6,602.9 821.6,603.2 820.6,603.4 819.5,603.5 818.4,603.6 817.4,603.6 816.3,603.5 815.2,603.4 814.1,603.2 812.9,602.9 811.8,602.6 810.7,602.3 809.6,601.9 808.5,601.4 807.4,600.9 806.3,600.3 805.2,599.8 804.1,599.2 803.0,598.7 801.9,598.0 800.9,597.4 799.8,596.8 798.8,596.2 797.7,595.5 796.7,594.8 795.6,594.1 794.6,593.5 793.6,592.9 792.6,592.2 791.6,591.6 790.6,591.0 789.7,590.4 788.8,589.8 787.8,589.2 786.8,588.6 785.9,588.0 785.0,587.5 784.1,586.9 783.3,586.4 782.4,585.9 781.5,585.4 780.7,585.0 779.8,584.5 779.0,584.1 778.1,583.7 777.3,583.3 776.6,583.0 775.7,582.7 775.0,582.4 774.3,582.2 773.5,581.9 772.7,581.7 772.0,581.5 771.4,581.4 770.7,581.2 770.0,581.1 769.3,581.0 768.6,581.0 767.9,580.9 767.2,580.9 766.6,580.9 766.0,581.0 765.3,581.0 764.7,581.1 764.0,581.2 763.4,581.4 762.7,581.6 762.1,581.8 761.5,582.1 760.8,582.3 760.2,582.7 759.5,583.0 759.0,583.4 758.3,583.8 757.7,584.2 757.2,584.6 756.6,585.0 756.0,585.6 755.4,586.1 754.9,586.6 754.3,587.2 753.6,587.9 753.0,588.7 752.4,589.4 751.9,590.1 751.3,590.8 750.8,591.6 750.2,592.4 749.6,593.3 749.1,594.2 748.5,595.1 747.9,596.2 747.4,597.2 746.8,598.3 746.2,599.5 745.6,600.7 745.0,601.9 744.5,603.0 743.9,604.2 743.3,605.4 742.8,606.6 742.2,607.8 741.6,609.2 741.0,610.4 740.3,611.8 739.7,613.1 739.1,614.4 738.5,615.7 737.8,617.1 737.2,618.3 736.4,619.7 735.8,621.0 735.0,622.4 734.3,623.7 733.6,625.0 732.8,626.2 732.0,627.3 731.2,628.5 730.3,629.6 729.5,630.6 728.7,631.5 727.8,632.4 727.0,633.2 726.0,634.0 725.0,634.7 724.0,635.3 723.0,635.8 721.9,636.3 720.7,636.6 719.7,636.9 718.6,637.0 717.3,637.1 716.2,637.2 715.0,637.1 713.7,636.9 712.4,636.6 711.1,636.3 709.7,635.8 708.4,635.3 706.9,634.7 705.6,634.1 704.1,633.3 702.6,632.5 701.1,631.6 699.6,630.6 698.1,629.6 696.6,628.6 695.0,627.4 693.5,626.4 691.9,625.1 690.2,623.9 688.5,622.6"/>
<polyline fill="none" stroke="#1f77b4" stroke-width="1.30" stroke-linejoin="round" stroke-linecap="round" points="833.6,594.9 831.7,597.0 830.7,598.0 829.8,598.8 828.8,599.6 827.8,600.4 826.8,601.0 825.7,601.6 824.7,602.1 823.7,602.5 822.6,602.9 821.6,603.2 820.6,603.4 819.5,603.5 818.4,603.6 817.4,603.6 816.3,603.5 815.2,603.4 814.1,603.2 812.9,602.9 811.8,602.6 810.7,602.3 809.6,601.9 808.5,601.4 807.4,600.9 806.3,600.3 805.2,599.8 804.1,599.2 803.0,598.7 801.9,598.0 800.9,597.4 799.8,596.8 798.8,596.2 797.7,595.5 796.7,594.8 795.6,594.1 794.6,593.5 793.6,592.9 792.6,592.2 791.6,591.6 790.6,591.0 789.7,590.4 788.8,589.8 787.8,589.2 786.8,588.6 785.9,588.0 785.0,587.5 784.1,586.9 783.3,586.4 782.4,585.9 781.5,585.4 780.7,585.0 779.8,584.5 779.0,584.1 778.1,583.7 777.3,583.3 776.6,583.0 775.7,582.7 775.0,582.4 774.3,582.2 773.5,581.9 772.7,581.7 772.0,581.5 771.4,581.4 770.7,581.2 770.0,581.1 769.3,581.0 768.6,581.0 767.9,580.9 767.2,580.9 766.6,580.9 766.0,581.0 765.3,581.0 764.7,581.1 764.0,581.2 763.4,581.4 762.7,581.6 762.1,581.8 761.5,582.1 760.8,582.3 760.2,582.7 759.5,583.0 759.0,583.4 758.3,583.8 757.7,584.2 757.2,584.6 756.6,585.0 756.0,585.6 755.4,586.1 754.9,586.6 754.3,587.2 753.6,587.9 753.0,588.7 752.4,589.4 751.9,590.1 751.3,590.8 750.8,591.6 750.2,592.4 749.6,593.3 749.1,594.2 748.5,595.1 747.9,596.2 747.4,597.2 746.8,598.3 746.2,599.5 745.6,600.7 745.0,601.9 744.5,603.0 743.9,604.2 743.3,605.4 742.8,606.6 742.2,607.8 741.6,609.2 741.0,610.4 740.3,611.8 739.7,613.1 739.1,614.4 738.5,615.7 737.8,617.1 737.2,618.3 736.4,619.7 735.8,621.0 735.0,622.4 734.3,623.7 733.6,625.0 732.8,626.2 732.0,627.3 731.2,628.5 730.3,629.6 729.5,630.6 728.7,631.5 727.8,632.4 727.0,633.2 726.0,634.0 725.0,634.7 724.0,635.3 723.0,635.8 721.9,636.3 720.7,636.6 719.7,636.9 718.6,637.0 717.3,637.1 716.2,637.2 715.0,637.1 713.7,636.9 712.4,636.6 711.1,636.3 709.7,635.8 708.4,635.3 706.9,634.7 705.6,634.1 704.1,633.3 702.6,632.5 701.1,631.6 699.6,630.6 698.1,629.6 696.6,628.6 695.0,627.4 693.5,626.4 691.9,625.1 690.2,623.9 688.5,622.6"/>
<polyline fill="none" stroke="#e8a33d" stroke-width="2.00" stroke-linejoin="round" stroke-linecap="round" stroke-dasharray="2,3" opacity="0.95" points="864.5,569.8 843.4,554.4"/>
<polyline fill="none" stroke="#e8a33d" stroke-width="2.00" stroke-linejoin="round" stroke-linecap="round" stroke-dasharray="2,3" opacity="0.95" points="651.5,617.8 651.0,591.7"/>
<path d="M 903.1 537.0 L 870.0 545.0 M 877.6 538.0 L 870.0 545.0 L 880.0 547.8" fill="none" stroke="#e07b00" stroke-width="1.6"/>
<path d="M 595.2 611.7 L 628.2 603.7 M 620.6 610.6 L 628.2 603.7 L 618.3 600.9" fill="none" stroke="#e07b00" stroke-width="1.6"/>
<circle cx="903.1" cy="537.0" r="4.20" fill="#111111"/>
<circle cx="595.2" cy="611.7" r="4.20" fill="#111111"/>
<line x1="18" y1="1051" x2="52" y2="1051" stroke="#bbbbbb" stroke-width="3.00"/>
<text x="58" y="1055" font-family="-apple-system,Helvetica,Arial" font-size="12" fill="#333">rest shape</text>
<line x1="164" y1="1051" x2="198" y2="1051" stroke="#1f77b4" stroke-width="1.30"/>
<text x="204" y="1055" font-family="-apple-system,Helvetica,Arial" font-size="12" fill="#333">A similarity (control)</text>
<line x1="406" y1="1051" x2="440" y2="1051" stroke="#d62728" stroke-width="2.80"/>
<text x="446" y="1055" font-family="-apple-system,Helvetica,Arial" font-size="12" fill="#333">A+C adaptive blend</text>
<line x1="616" y1="1051" x2="650" y2="1051" stroke="#e8a33d" stroke-width="2.00" stroke-dasharray="2,3"/>
<text x="656" y="1055" font-family="-apple-system,Helvetica,Arial" font-size="12" fill="#333">blend region ends, departure pull</text>
</svg>
