<svg xmlns="http://www.w3.org/2000/svg" width="1100" height="1100" viewBox="0 0 1100 1100">
<rect x="0" y="0" width="1100" height="1100" fill="#ffffff"/>
<text x="18" y="26" font-family="-apple-system,Helvetica,Arial" font-size="18" font-weight="600" fill="#111">wiggle/translate-far</text>
<text x="18" y="46" font-family="ui-monospace,Menlo,monospace" font-size="12" fill="#444">large move; chord grows and rotates</text>
<text x="18" y="63" font-family="ui-monospace,Menlo,monospace" font-size="12" fill="#444">ends: A edge:aligned obliq 15.7deg   B edge:aligned obliq 54.8deg</text>
<text x="18" y="80" font-family="ui-monospace,Menlo,monospace" font-size="12" fill="#444">rest 320 samples, len 396.7u, chord 331.7u   |   warped L' 764.3u, scale 1.927</text>
<text x="18" y="97" font-family="ui-monospace,Menlo,monospace" font-size="12" fill="#444">turn 25.6/25.6deg   Local blend 0.035/0.035 of arc   Morph m=0.187   Cubic handle 764.3u</text>
<text x="18" y="114" font-family="ui-monospace,Menlo,monospace" font-size="12" fill="#444">secant facing deg  Local 5.1  Cubic 0.4  Morph 21.0   analytic  Local 0.0  Cubic 0.00  Morph 20.9</text>
<text x="18" y="131" font-family="ui-monospace,Menlo,monospace" font-size="12" fill="#444">W5 cusps/minR  Local 0+0 r19.2  Cubic 0+0 r153.6  Morph 0+0 r36.2   backtrack/x 0/0/0   inflections Cubic/Morph 1/6</text>
<text x="18" y="148" font-family="ui-monospace,Menlo,monospace" font-size="12" fill="#444">ink spent vs U: mean/frac&gt;1u  Local 0.15u/6%  Cubic 40.75u/99%  Morph 7.63u/95%</text>
<polyline fill="none" stroke="#c9c9c9" stroke-width="1.40" stroke-linejoin="round" stroke-linecap="round" stroke-dasharray="6,4" points="255.2,409.1 447.0,409.1 447.0,541.3 255.2,541.3 255.2,409.1"/>
<polyline fill="none" stroke="#c9c9c9" stroke-width="1.40" stroke-linejoin="round" stroke-linecap="round" stroke-dasharray="6,4" points="798.8,357.9 1012.0,357.9 1012.0,507.2 798.8,507.2 798.8,357.9"/>
<polyline fill="none" stroke="#111111" stroke-width="1.80" stroke-linejoin="round" stroke-linecap="round" points="26.0,728.9 217.9,728.9 217.9,861.1 26.0,861.1 26.0,728.9"/>
<polyline fill="none" stroke="#111111" stroke-width="1.80" stroke-linejoin="round" stroke-linecap="round" points="798.8,357.9 1012.0,357.9 1012.0,507.2 798.8,507.2 798.8,357.9"/>
<polyline fill="none" stroke="#bbbbbb" stroke-width="3.00" stroke-linejoin="round" stroke-linecap="round" points="447.0,468.6 448.0,468.2 449.1,467.8 450.2,467.5 451.2,467.1 452.3,466.8 453.4,466.6 454.5,466.3 455.6,466.0 456.7,465.8 457.9,465.6 459.1,465.4 460.3,465.3 461.5,465.1 462.7,465.0 463.9,464.9 465.1,464.8 466.4,464.7 467.6,464.6 468.9,464.5 470.2,464.4 471.4,464.3 472.7,464.2 474.0,464.1 475.4,464.0 476.7,463.8 478.0,463.7 479.4,463.5 480.6,463.2 482.0,462.9 483.4,462.6 484.6,462.3 485.9,461.9 487.3,461.4 488.6,460.9 489.9,460.3 491.2,459.7 492.5,459.0 493.8,458.3 495.0,457.5 496.3,456.6 497.6,455.7 498.9,454.7 500.2,453.6 501.5,452.4 502.8,451.1 504.1,449.8 505.4,448.4 506.7,447.0 507.9,445.6 509.2,444.0 510.5,442.4 511.8,440.8 513.1,439.2 514.3,437.5 515.5,435.9 516.7,434.3 518.0,432.6 519.2,431.0 520.4,429.4 521.6,427.8 522.9,426.2 524.1,424.7 525.2,423.2 526.5,421.7 527.7,420.3 528.9,418.9 530.1,417.7 531.3,416.4 532.6,415.1 533.8,414.1 535.0,413.1 536.3,412.1 537.4,411.3 538.6,410.6 539.8,409.9 541.1,409.3 542.3,408.8 543.5,408.4 544.7,408.1 545.9,407.9 547.1,407.7 548.3,407.7 549.5,407.7 550.7,407.7 551.9,407.9 553.1,408.1 554.3,408.5 555.5,408.8 556.7,409.3 557.9,409.8 559.0,410.4 560.2,411.0 561.3,411.7 562.5,412.4 563.7,413.2 564.8,413.9 565.9,414.7 567.0,415.5 568.1,416.4 569.2,417.2 570.3,418.1 571.3,418.9 572.4,419.8 573.4,420.7 574.6,421.7 575.6,422.5 576.6,423.4 577.5,424.2 578.5,425.0 579.5,425.9 580.5,426.7 581.4,427.4 582.4,428.3 583.4,429.1 584.4,429.9 585.2,430.7 586.1,431.4 587.0,432.0 587.9,432.7 588.8,433.4 589.6,434.1 590.5,434.7 591.4,435.3 592.3,435.9 593.1,436.4 593.9,436.8 594.7,437.3 595.5,437.8 596.3,438.1 597.1,438.5 597.9,438.9 598.7,439.2 599.4,439.5 600.1,439.7 600.8,439.9 601.6,440.1 602.3,440.3 603.1,440.5 603.9,440.6 604.6,440.7 605.3,440.7 606.0,440.7 606.8,440.7 607.5,440.7 608.2,440.6 609.0,440.5 609.7,440.3 610.4,440.2 611.2,440.0 612.0,439.7 612.7,439.4 613.4,439.1 614.2,438.8 614.9,438.4 615.6,438.0 616.2,437.6 617.0,437.1 617.7,436.6 618.4,436.1 619.2,435.5 620.0,434.9 620.8,434.2 621.5,433.5 622.3,432.7 623.0,432.0 623.7,431.3 624.4,430.5 625.2,429.6 626.0,428.6 626.7,427.7 627.5,426.6 628.3,425.6 629.1,424.4 629.9,423.2 630.8,422.0 631.6,420.7 632.4,419.6 633.2,418.3 634.0,417.0 634.8,415.8 635.6,414.6 636.6,413.2 637.4,411.9 638.3,410.5 639.2,409.1 640.0,407.8 640.9,406.5 641.9,405.0 642.8,403.7 643.8,402.3 644.7,401.0 645.7,399.6 646.7,398.3 647.8,396.9 648.8,395.7 649.8,394.5 650.9,393.4 652.0,392.3 653.1,391.3 654.2,390.4 655.2,389.6 656.3,388.8 657.5,388.1 658.7,387.5 659.9,387.0 661.1,386.5 662.4,386.2 663.7,385.9 664.9,385.8 666.2,385.8 667.5,385.9 668.9,386.1 670.2,386.3 671.6,386.7 673.0,387.2 674.4,387.8 675.8,388.5 677.2,389.2 678.7,390.1 680.1,391.1 681.7,392.1 683.2,393.3 684.7,394.5 686.2,395.8 687.7,397.1 689.2,398.5 690.8,400.0 692.3,401.4 693.9,403.0 695.6,404.7 697.2,406.3 698.8,408.0 700.5,409.6 702.0,411.2 703.6,412.7 705.1,414.2 706.7,415.7 708.2,417.1 709.8,418.5 711.3,419.8 712.8,421.1 714.3,422.3 715.8,423.5 717.3,424.6 718.8,425.6 720.3,426.7 721.8,427.6 723.2,428.4 724.6,429.2 726.1,429.8 727.4,430.4 728.9,430.9 730.3,431.4 731.8,431.8 733.1,432.0 734.4,432.2 735.8,432.4 737.1,432.5 738.4,432.5 739.8,432.5 741.1,432.4 742.3,432.3 743.5,432.2 744.8,432.0 746.1,431.7 747.3,431.5 748.4,431.2 749.6,430.9 750.8,430.6 752.0,430.3 753.1,429.9 754.3,429.5 755.5,429.2 756.6,428.9 757.6,428.5 758.8,428.2 759.9,427.8 760.9,427.6 762.1,427.3 763.2,427.0 764.2,426.7 765.2,426.5 766.2,426.3 767.3,426.1 768.3,426.0 769.3,425.9 770.2,425.7 771.2,425.7 772.3,425.6 773.3,425.5 774.3,425.5 775.2,425.5 776.2,425.6 777.1,425.6 778.1,425.7 779.1,425.8 780.0,426.0 780.9,426.1 781.8,426.3 782.7,426.5 783.5,426.7 784.5,426.9 785.3,427.1 786.2,427.4 787.0,427.6 787.8,427.9 788.6,428.2 789.5,428.5 790.3,428.8 791.2,429.2 792.1,429.5 793.0,429.9 793.8,430.2 794.7,430.6 795.5,431.0 796.3,431.4 797.1,431.8 798.0,432.2 798.8,432.6"/>
<polyline fill="none" stroke="#e8a33d" stroke-width="1.00" stroke-linejoin="round" stroke-linecap="round" stroke-dasharray="1,4" opacity="0.80" points="217.9,788.4 231.6,784.5"/>
<polyline fill="none" stroke="#e8a33d" stroke-width="1.00" stroke-linejoin="round" stroke-linecap="round" stroke-dasharray="1,4" opacity="0.80" points="798.8,432.6 785.7,426.9"/>
<polyline fill="none" stroke="#f3c98b" stroke-width="9.00" stroke-linejoin="round" stroke-linecap="round" opacity="0.85" points="217.9,788.4 220.4,787.3 223.0,786.2 225.1,784.9 227.0,783.7 228.6,782.2 230.1,780.9 231.4,779.4 232.7,777.9 233.9,776.4 235.3,774.8 236.8,773.3 238.5,771.9 240.2,770.5"/>
<polyline fill="none" stroke="#f3c98b" stroke-width="9.00" stroke-linejoin="round" stroke-linecap="round" opacity="0.85" points="798.8,432.6 796.5,431.8 794.3,431.0 792.1,430.6 790.3,430.3 788.5,430.2 786.7,430.4 784.9,430.5 783.3,430.9 781.6,431.4 780.0,431.9 778.4,432.4 776.9,433.0 775.5,433.5 774.0,434.0 772.5,434.3 770.8,434.7"/>
<polyline fill="none" stroke="#8fbde0" stroke-width="6.00" stroke-linejoin="round" stroke-linecap="round" points="217.9,788.4 219.3,786.9 220.9,785.5 222.5,784.0 224.1,782.6 225.7,781.1 227.3,779.8 229.0,778.4 230.8,777.0 232.5,775.8 234.4,774.4 236.4,773.0 238.3,771.8 240.2,770.5 242.2,769.3 244.1,768.0 246.1,766.8 248.3,765.5 250.3,764.3 252.4,763.1 254.5,761.8 256.6,760.6 258.8,759.3 260.9,758.0 263.1,756.6 265.3,755.2 267.4,753.8 269.5,752.3 271.5,750.8 273.6,749.1 275.7,747.4 277.6,745.8 279.5,744.0 281.5,742.0 283.3,740.1 285.1,738.0 286.7,735.9 288.4,733.6 290.1,731.3 291.6,728.9 293.1,726.3 294.6,723.6 295.9,720.9 297.3,717.8 298.6,714.7 299.9,711.4 301.1,708.1 302.2,704.7 303.3,701.1 304.3,697.6 305.2,693.8 306.2,690.0 307.1,686.0 307.9,682.2 308.8,678.2 309.5,674.5 310.3,670.7 311.1,666.8 311.8,663.0 312.6,659.2 313.4,655.4 314.3,651.5 315.1,647.9 316.0,644.4 316.9,640.7 317.9,637.3 318.9,634.0 319.9,630.8 321.1,627.5 322.3,624.4 323.5,621.6 324.8,618.9 326.3,616.2 327.7,613.9 329.2,611.7 330.8,609.6 332.4,607.6 334.1,605.8 335.9,604.2 337.7,602.6 339.6,601.3 341.4,600.1 343.4,599.0 345.5,598.0 347.6,597.1 349.6,596.5 351.9,595.8 354.1,595.4 356.5,595.0 359.0,594.7 361.5,594.6 363.9,594.5 366.3,594.6 368.9,594.7 371.6,594.9 374.2,595.2 376.7,595.6 379.3,596.0 381.9,596.4 384.6,597.0 387.2,597.5 389.8,598.1 392.3,598.7 394.8,599.3 397.5,599.9 400.2,600.6 402.7,601.3 405.2,601.9 407.5,602.5 410.0,603.1 412.4,603.7 414.7,604.3 416.9,604.9 419.4,605.5 421.7,606.1 424.2,606.7 426.3,607.2 428.4,607.6 430.5,608.1 432.6,608.5 434.7,608.9 436.8,609.3 438.8,609.6 440.8,609.9 442.9,610.1 444.7,610.2 446.4,610.4 448.4,610.5 450.1,610.5 451.6,610.5 453.4,610.5 455.1,610.4 456.6,610.2 458.1,610.1 459.5,609.8 460.9,609.6 462.4,609.3 463.8,608.9 465.2,608.5 466.6,608.1 467.9,607.6 469.1,607.1 470.3,606.6 471.6,606.0 472.7,605.3 473.9,604.6 475.1,603.7 476.2,602.9 477.3,602.1 478.5,601.1 479.6,600.0 480.7,598.9 481.6,597.9 482.7,596.7 483.6,595.6 484.4,594.3 485.3,593.1 486.2,591.7 487.1,590.2 487.9,588.8 488.8,587.2 489.6,585.4 490.5,583.5 491.2,581.7 491.9,579.9 492.6,578.0 493.2,576.2 493.8,574.2 494.5,572.0 495.1,569.7 495.6,567.4 496.1,565.0 496.6,562.5 497.1,559.9 497.6,557.1 498.0,554.2 498.5,551.4 498.9,548.7 499.3,545.8 499.7,543.0 500.0,540.2 500.4,537.3 500.8,534.1 501.2,531.2 501.7,528.0 502.1,524.9 502.5,522.0 502.9,518.9 503.4,515.6 503.9,512.6 504.5,509.2 505.0,506.2 505.7,502.9 506.3,499.8 507.1,496.7 507.9,493.8 508.7,490.9 509.7,488.0 510.8,485.1 511.9,482.7 513.0,480.3 514.2,478.0 515.5,475.9 517.0,473.7 518.6,471.7 520.1,469.9 522.0,468.2 523.8,466.6 525.8,465.2 527.8,464.0 529.9,462.9 532.3,461.9 534.6,461.1 537.1,460.4 539.8,459.8 542.5,459.5 545.4,459.2 548.5,459.2 551.5,459.3 554.8,459.5 558.0,459.9 561.6,460.4 565.2,461.1 568.8,461.9 572.5,462.8 576.2,463.8 580.0,464.9 584.1,466.2 587.9,467.4 592.0,468.8 596.2,470.2 600.4,471.7 604.7,473.2 608.9,474.6 612.9,476.0 616.8,477.3 620.8,478.6 624.8,479.9 628.5,481.0 632.4,482.2 636.2,483.2 639.9,484.2 643.5,485.0 647.0,485.7 650.6,486.4 654.0,487.0 657.5,487.4 661.0,487.7 664.1,487.9 667.2,488.0 670.1,487.9 673.0,487.8 675.9,487.4 678.7,487.0 681.6,486.5 684.0,485.8 686.5,485.1 689.1,484.2 691.3,483.3 693.7,482.3 696.0,481.1 698.1,480.0 700.2,478.8 702.2,477.6 704.3,476.2 706.3,474.8 708.2,473.4 710.0,472.0 711.8,470.5 713.6,469.0 715.4,467.5 717.2,465.9 719.0,464.3 720.7,462.8 722.4,461.4 724.0,459.9 725.7,458.4 727.4,456.9 729.0,455.6 730.7,454.2 732.4,452.8 734.0,451.6 735.6,450.4 737.2,449.2 738.9,448.0 740.5,446.9 742.1,445.9 743.7,444.9 745.4,443.9 747.2,443.0 748.8,442.1 750.5,441.3 752.2,440.5 753.9,439.7 755.6,439.1 757.3,438.4 759.1,437.8 760.7,437.3 762.4,436.7 764.2,436.3 765.8,435.8 767.4,435.5 769.3,435.1 770.9,434.8 772.6,434.5 774.2,434.2 775.9,434.0 777.5,433.8 779.3,433.6 781.0,433.4 782.9,433.2 784.7,433.1 786.5,433.0 788.2,432.9 790.0,432.8 791.8,432.7 793.4,432.7 795.2,432.6 797.0,432.6 798.8,432.6"/>
<polyline fill="none" stroke="#d62728" stroke-width="2.20" stroke-linejoin="round" stroke-linecap="round" points="217.9,788.4 220.4,787.3 223.0,786.2 225.1,784.9 227.0,783.7 228.6,782.2 230.1,780.9 231.4,779.4 232.7,777.9 233.9,776.4 235.3,774.8 236.8,773.3 238.5,771.9 240.2,770.5 242.2,769.3 244.1,768.0 246.1,766.8 248.3,765.5 250.3,764.3 252.4,763.1 254.5,761.8 256.6,760.6 258.8,759.3 260.9,758.0 263.1,756.6 265.3,755.2 267.4,753.8 269.5,752.3 271.5,750.8 273.6,749.1 275.7,747.4 277.6,745.8 279.5,744.0 281.5,742.0 283.3,740.1 285.1,738.0 286.7,735.9 288.4,733.6 290.1,731.3 291.6,728.9 293.1,726.3 294.6,723.6 295.9,720.9 297.3,717.8 298.6,714.7 299.9,711.4 301.1,708.1 302.2,704.7 303.3,701.1 304.3,697.6 305.2,693.8 306.2,690.0 307.1,686.0 307.9,682.2 308.8,678.2 309.5,674.5 310.3,670.7 311.1,666.8 311.8,663.0 312.6,659.2 313.4,655.4 314.3,651.5 315.1,647.9 316.0,644.4 316.9,640.7 317.9,637.3 318.9,634.0 319.9,630.8 321.1,627.5 322.3,624.4 323.5,621.6 324.8,618.9 326.3,616.2 327.7,613.9 329.2,611.7 330.8,609.6 332.4,607.6 334.1,605.8 335.9,604.2 337.7,602.6 339.6,601.3 341.4,600.1 343.4,599.0 345.5,598.0 347.6,597.1 349.6,596.5 351.9,595.8 354.1,595.4 356.5,595.0 359.0,594.7 361.5,594.6 363.9,594.5 366.3,594.6 368.9,594.7 371.6,594.9 374.2,595.2 376.7,595.6 379.3,596.0 381.9,596.4 384.6,597.0 387.2,597.5 389.8,598.1 392.3,598.7 394.8,599.3 397.5,599.9 400.2,600.6 402.7,601.3 405.2,601.9 407.5,602.5 410.0,603.1 412.4,603.7 414.7,604.3 416.9,604.9 419.4,605.5 421.7,606.1 424.2,606.7 426.3,607.2 428.4,607.6 430.5,608.1 432.6,608.5 434.7,608.9 436.8,609.3 438.8,609.6 440.8,609.9 442.9,610.1 444.7,610.2 446.4,610.4 448.4,610.5 450.1,610.5 451.6,610.5 453.4,610.5 455.1,610.4 456.6,610.2 458.1,610.1 459.5,609.8 460.9,609.6 462.4,609.3 463.8,608.9 465.2,608.5 466.6,608.1 467.9,607.6 469.1,607.1 470.3,606.6 471.6,606.0 472.7,605.3 473.9,604.6 475.1,603.7 476.2,602.9 477.3,602.1 478.5,601.1 479.6,600.0 480.7,598.9 481.6,597.9 482.7,596.7 483.6,595.6 484.4,594.3 485.3,593.1 486.2,591.7 487.1,590.2 487.9,588.8 488.8,587.2 489.6,585.4 490.5,583.5 491.2,581.7 491.9,579.9 492.6,578.0 493.2,576.2 493.8,574.2 494.5,572.0 495.1,569.7 495.6,567.4 496.1,565.0 496.6,562.5 497.1,559.9 497.6,557.1 498.0,554.2 498.5,551.4 498.9,548.7 499.3,545.8 499.7,543.0 500.0,540.2 500.4,537.3 500.8,534.1 501.2,531.2 501.7,528.0 502.1,524.9 502.5,522.0 502.9,518.9 503.4,515.6 503.9,512.6 504.5,509.2 505.0,506.2 505.7,502.9 506.3,499.8 507.1,496.7 507.9,493.8 508.7,490.9 509.7,488.0 510.8,485.1 511.9,482.7 513.0,480.3 514.2,478.0 515.5,475.9 517.0,473.7 518.6,471.7 520.1,469.9 522.0,468.2 523.8,466.6 525.8,465.2 527.8,464.0 529.9,462.9 532.3,461.9 534.6,461.1 537.1,460.4 539.8,459.8 542.5,459.5 545.4,459.2 548.5,459.2 551.5,459.3 554.8,459.5 558.0,459.9 561.6,460.4 565.2,461.1 568.8,461.9 572.5,462.8 576.2,463.8 580.0,464.9 584.1,466.2 587.9,467.4 592.0,468.8 596.2,470.2 600.4,471.7 604.7,473.2 608.9,474.6 612.9,476.0 616.8,477.3 620.8,478.6 624.8,479.9 628.5,481.0 632.4,482.2 636.2,483.2 639.9,484.2 643.5,485.0 647.0,485.7 650.6,486.4 654.0,487.0 657.5,487.4 661.0,487.7 664.1,487.9 667.2,488.0 670.1,487.9 673.0,487.8 675.9,487.4 678.7,487.0 681.6,486.5 684.0,485.8 686.5,485.1 689.1,484.2 691.3,483.3 693.7,482.3 696.0,481.1 698.1,480.0 700.2,478.8 702.2,477.6 704.3,476.2 706.3,474.8 708.2,473.4 710.0,472.0 711.8,470.5 713.6,469.0 715.4,467.5 717.2,465.9 719.0,464.3 720.7,462.8 722.4,461.4 724.0,459.9 725.7,458.4 727.4,456.9 729.0,455.6 730.7,454.2 732.4,452.8 734.0,451.6 735.6,450.4 737.2,449.2 738.9,448.0 740.5,446.9 742.1,445.9 743.7,444.9 745.4,443.9 747.2,443.0 748.8,442.1 750.5,441.3 752.2,440.5 753.9,439.7 755.6,439.1 757.3,438.4 759.1,437.8 760.7,437.3 762.4,436.7 764.2,436.3 765.8,435.8 767.4,435.5 769.3,435.1 770.8,434.7 772.5,434.3 774.0,434.0 775.5,433.5 776.9,433.0 778.4,432.4 780.0,431.9 781.6,431.4 783.3,430.9 784.9,430.5 786.7,430.4 788.5,430.2 790.3,430.3 792.1,430.6 794.3,431.0 796.5,431.8 798.8,432.6"/>
<polyline fill="none" stroke="#2ca02c" stroke-width="2.00" stroke-linejoin="round" stroke-linecap="round" points="217.9,788.4 219.8,787.7 221.8,787.0 223.9,786.3 225.9,785.7 227.9,785.0 229.9,784.4 231.9,783.7 234.1,783.0 236.0,782.3 238.2,781.5 240.4,780.7 242.5,780.0 244.6,779.2 246.7,778.4 248.9,777.6 251.0,776.8 253.2,775.9 255.4,775.1 257.6,774.2 259.8,773.3 261.9,772.4 264.2,771.3 266.4,770.4 268.7,769.4 271.0,768.3 273.2,767.3 275.5,766.2 277.6,765.1 279.9,764.0 282.2,762.8 284.4,761.7 286.6,760.5 288.9,759.2 291.1,758.0 293.4,756.7 295.6,755.4 297.9,754.0 300.3,752.6 302.6,751.2 305.0,749.6 307.4,748.1 309.9,746.5 312.5,744.7 315.2,742.8 318.0,740.9 320.8,739.0 323.6,737.0 326.5,734.9 329.3,732.8 332.3,730.6 335.2,728.3 338.3,725.9 341.3,723.6 344.3,721.2 347.2,718.8 350.0,716.5 352.9,714.0 355.7,711.7 358.6,709.2 361.4,706.8 364.3,704.2 366.9,701.9 369.5,699.5 372.1,697.0 374.6,694.7 377.1,692.4 379.3,690.2 381.7,687.8 384.0,685.6 386.1,683.5 388.1,681.5 390.1,679.4 391.9,677.5 393.6,675.7 395.4,673.9 397.0,672.1 398.6,670.4 400.2,668.8 401.7,667.2 403.2,665.6 404.6,664.1 406.2,662.5 407.6,661.0 409.2,659.4 410.5,658.0 412.1,656.4 413.6,654.9 415.2,653.4 416.9,651.6 418.5,650.0 420.2,648.3 421.8,646.6 423.5,644.9 425.3,643.0 427.0,641.2 428.7,639.4 430.4,637.5 432.1,635.7 433.9,633.8 435.6,631.9 437.3,630.0 439.0,628.2 440.7,626.3 442.4,624.4 444.2,622.4 445.9,620.5 447.5,618.7 449.0,616.9 450.6,615.1 452.2,613.3 453.7,611.6 455.1,610.0 456.7,608.1 458.2,606.4 459.8,604.6 461.2,603.1 462.5,601.5 463.8,600.0 465.2,598.5 466.6,596.9 467.9,595.4 469.1,594.0 470.5,592.6 471.7,591.1 472.9,589.8 473.9,588.6 475.2,587.2 476.2,586.1 477.2,585.0 478.3,583.7 479.3,582.6 480.3,581.5 481.2,580.5 482.1,579.5 483.0,578.5 483.9,577.5 484.8,576.6 485.7,575.5 486.5,574.6 487.4,573.6 488.2,572.7 489.0,571.8 489.8,570.9 490.7,569.9 491.3,569.0 492.3,567.9 493.1,567.0 493.8,566.0 494.7,565.0 495.7,563.9 496.5,562.8 497.3,561.8 498.3,560.6 499.1,559.7 499.9,558.6 500.8,557.5 501.7,556.4 502.8,555.1 503.7,554.0 504.7,552.7 505.9,551.3 507.1,549.9 508.2,548.5 509.4,547.1 510.5,545.8 511.7,544.4 512.9,542.9 514.2,541.4 515.6,539.8 517.0,538.2 518.4,536.4 519.9,534.7 521.5,532.9 523.1,530.9 524.9,529.0 526.6,527.0 528.1,525.3 529.9,523.3 531.6,521.4 533.3,519.6 535.0,517.7 536.9,515.6 538.7,513.7 540.6,511.6 542.5,509.6 544.3,507.7 546.1,505.7 548.1,503.7 549.9,501.7 552.0,499.6 553.8,497.7 555.8,495.7 557.7,493.7 559.6,491.8 561.4,490.0 563.2,488.2 565.0,486.3 566.8,484.5 568.4,482.9 569.9,481.4 571.5,479.9 572.9,478.5 574.4,477.1 576.0,475.5 577.3,474.3 578.8,472.9 580.2,471.6 581.8,470.3 583.1,469.1 584.5,468.0 586.2,466.6 587.7,465.5 589.4,464.2 591.0,462.9 592.8,461.6 594.7,460.3 596.6,458.9 598.5,457.5 600.7,456.0 602.8,454.5 605.1,452.9 607.5,451.2 609.9,449.6 612.3,448.0 614.9,446.4 617.5,444.8 620.2,443.1 622.8,441.5 625.7,439.8 628.7,438.2 631.7,436.5 634.7,435.0 637.7,433.4 640.5,432.0 643.3,430.7 646.2,429.4 649.0,428.2 651.7,427.1 654.6,426.0 657.3,425.0 659.9,424.1 662.6,423.2 665.1,422.4 667.6,421.6 670.1,420.9 672.6,420.2 675.1,419.6 677.4,419.1 679.6,418.7 681.7,418.2 683.8,417.8 685.9,417.4 688.0,417.1 690.1,416.7 691.9,416.5 693.8,416.2 695.8,415.9 697.6,415.7 699.5,415.4 701.5,415.2 703.3,415.0 705.0,414.9 706.8,414.7 708.8,414.6 710.7,414.5 712.4,414.4 714.2,414.3 716.0,414.2 717.9,414.2 719.7,414.2 721.5,414.2 723.4,414.2 725.3,414.2 727.0,414.3 728.7,414.3 730.6,414.4 732.4,414.6 734.1,414.7 735.9,414.8 737.7,415.0 739.3,415.2 740.9,415.4 742.6,415.6 744.3,415.8 745.9,416.1 747.5,416.3 749.0,416.6 750.7,416.9 752.3,417.2 753.9,417.5 755.5,417.8 757.1,418.2 758.7,418.6 760.2,418.9 761.7,419.3 763.3,419.7 764.8,420.1 766.3,420.5 767.9,421.0 769.4,421.4 770.8,421.9 772.4,422.4 773.8,422.8 775.3,423.3 776.8,423.8 778.3,424.3 779.7,424.8 781.2,425.4 782.8,426.0 784.4,426.6 786.1,427.2 787.7,427.8 789.3,428.4 790.9,429.1 792.4,429.8 793.9,430.4 795.6,431.1 797.2,431.8 798.8,432.6"/>
<polyline fill="none" stroke="#ff7f0e" stroke-width="2.00" stroke-linejoin="round" stroke-linecap="round" points="217.9,788.4 219.4,787.1 221.1,785.8 222.8,784.4 224.4,783.1 226.2,781.9 227.8,780.7 229.6,779.4 231.4,778.1 233.2,777.0 235.1,775.7 237.1,774.5 239.1,773.3 241.0,772.2 243.0,771.0 245.0,769.8 247.0,768.7 249.2,767.5 251.3,766.3 253.4,765.2 255.5,764.0 257.6,762.8 259.8,761.5 262.0,760.3 264.2,759.0 266.3,757.7 268.5,756.3 270.6,754.9 272.7,753.5 274.8,751.9 276.9,750.3 278.8,748.8 280.8,747.1 282.9,745.2 284.7,743.4 286.6,741.5 288.4,739.6 290.2,737.5 292.0,735.3 293.7,733.1 295.4,730.6 297.0,728.2 298.5,725.7 300.2,722.9 301.8,720.0 303.3,716.9 304.8,713.8 306.2,710.7 307.6,707.4 308.9,704.2 310.3,700.7 311.6,697.2 312.9,693.5 314.2,690.0 315.4,686.3 316.6,682.8 317.7,679.3 318.9,675.6 320.1,672.1 321.2,668.6 322.4,665.0 323.7,661.4 324.8,658.0 326.0,654.7 327.3,651.3 328.5,648.0 329.8,644.9 331.0,641.9 332.4,638.8 333.9,635.8 335.2,633.2 336.7,630.6 338.2,628.1 339.7,625.8 341.2,623.7 342.9,621.6 344.5,619.7 346.1,617.9 347.9,616.3 349.7,614.7 351.5,613.3 353.3,612.1 355.2,610.9 357.1,609.8 359.2,608.8 361.0,608.0 363.2,607.2 365.3,606.5 367.5,605.9 369.8,605.3 372.2,604.9 374.4,604.6 376.7,604.3 379.1,604.1 381.6,603.9 384.1,603.8 386.5,603.8 388.9,603.7 391.3,603.8 393.8,603.8 396.2,603.9 398.7,604.0 401.0,604.2 403.4,604.3 405.9,604.5 408.5,604.7 410.8,604.9 413.1,605.0 415.3,605.2 417.6,605.4 419.8,605.5 422.0,605.7 424.1,605.8 426.4,606.0 428.6,606.1 430.8,606.3 432.8,606.4 434.8,606.5 436.7,606.6 438.7,606.6 440.7,606.7 442.6,606.7 444.5,606.7 446.4,606.6 448.3,606.6 449.9,606.5 451.6,606.3 453.4,606.2 455.0,606.0 456.4,605.7 458.1,605.5 459.6,605.2 461.1,604.9 462.4,604.6 463.8,604.2 465.1,603.8 466.4,603.4 467.7,602.9 469.1,602.4 470.3,601.8 471.5,601.3 472.7,600.7 473.8,600.1 475.0,599.4 476.1,598.7 477.1,598.0 478.3,597.0 479.4,596.2 480.4,595.3 481.5,594.3 482.6,593.3 483.6,592.2 484.6,591.1 485.6,589.9 486.5,588.8 487.3,587.7 488.2,586.4 489.1,585.1 490.0,583.6 490.9,582.3 491.8,580.7 492.7,579.0 493.6,577.2 494.4,575.5 495.2,573.7 495.9,572.0 496.7,570.2 497.4,568.3 498.2,566.2 498.9,564.1 499.6,561.9 500.3,559.6 501.0,557.3 501.7,554.8 502.4,552.2 503.1,549.5 503.7,546.8 504.3,544.3 505.0,541.6 505.7,538.9 506.3,536.3 506.9,533.7 507.6,530.7 508.2,528.0 508.9,524.9 509.6,522.1 510.3,519.3 511.0,516.4 511.8,513.4 512.5,510.6 513.4,507.4 514.1,504.6 515.0,501.6 515.9,498.7 516.9,495.7 517.9,493.1 518.9,490.4 520.0,487.7 521.3,485.0 522.4,482.7 523.7,480.5 524.9,478.3 526.3,476.4 527.7,474.3 529.3,472.4 530.8,470.8 532.6,469.0 534.4,467.5 536.3,466.1 538.2,464.9 540.1,463.8 542.4,462.7 544.6,461.9 546.9,461.1 549.4,460.4 551.9,459.9 554.7,459.4 557.5,459.1 560.3,458.9 563.4,458.8 566.4,458.8 569.7,459.0 573.2,459.2 576.5,459.6 580.0,460.0 583.5,460.5 587.0,461.2 590.8,461.8 594.4,462.5 598.3,463.4 602.3,464.2 606.3,465.1 610.3,466.0 614.3,466.9 618.1,467.8 621.8,468.6 625.5,469.4 629.3,470.2 632.9,471.0 636.6,471.7 640.2,472.3 643.6,472.9 647.1,473.4 650.4,473.9 653.8,474.3 657.0,474.6 660.4,474.8 663.6,475.0 666.6,475.0 669.5,475.0 672.3,474.9 675.0,474.7 677.8,474.3 680.5,473.9 683.2,473.4 685.5,472.8 687.9,472.2 690.3,471.4 692.5,470.7 694.8,469.8 697.0,468.8 699.1,467.8 701.1,466.9 703.1,465.8 705.2,464.7 707.1,463.5 709.0,462.4 710.8,461.2 712.6,460.0 714.4,458.8 716.2,457.5 718.0,456.3 719.8,455.0 721.6,453.7 723.2,452.6 724.9,451.4 726.6,450.2 728.3,449.0 729.9,447.9 731.7,446.8 733.4,445.7 735.0,444.7 736.6,443.8 738.2,442.9 739.9,442.0 741.5,441.1 743.1,440.4 744.7,439.6 746.4,438.9 748.1,438.1 749.7,437.5 751.4,436.9 753.1,436.3 754.8,435.8 756.4,435.3 758.1,434.8 759.9,434.4 761.5,434.0 763.1,433.7 764.9,433.4 766.5,433.1 768.1,432.9 769.9,432.7 771.4,432.5 773.1,432.4 774.7,432.2 776.3,432.2 777.9,432.1 779.6,432.0 781.3,432.0 783.1,432.0 784.9,432.0 786.7,432.0 788.4,432.0 790.2,432.1 791.9,432.2 793.5,432.2 795.3,432.3 797.1,432.4 798.8,432.6"/>
<polyline fill="none" stroke="#e8a33d" stroke-width="2.00" stroke-linejoin="round" stroke-linecap="round" stroke-dasharray="2,3" opacity="0.95" points="230.7,759.3 249.4,782.6"/>
<polyline fill="none" stroke="#e8a33d" stroke-width="2.00" stroke-linejoin="round" stroke-linecap="round" stroke-dasharray="2,3" opacity="0.95" points="767.5,420.6 774.8,449.5"/>
<path d="M 217.9 788.4 L 250.6 779.1 M 243.3 786.4 L 250.6 779.1 L 240.6 776.7" fill="none" stroke="#e07b00" stroke-width="1.6"/>
<path d="M 798.8 432.6 L 767.6 419.1 M 777.8 418.1 L 767.6 419.1 L 773.9 427.3" fill="none" stroke="#e07b00" stroke-width="1.6"/>
<circle cx="217.9" cy="788.4" r="4.20" fill="#111111"/>
<circle cx="798.8" cy="432.6" r="4.20" fill="#111111"/>
<line x1="18" y1="1084" x2="48" y2="1084" stroke="#bbbbbb" stroke-width="3.00"/>
<text x="54" y="1088" font-family="-apple-system,Helvetica,Arial" font-size="12" fill="#333">as drawn</text>
<line x1="129" y1="1084" x2="159" y2="1084" stroke="#8fbde0" stroke-width="6.00"/>
<text x="165" y="1088" font-family="-apple-system,Helvetica,Arial" font-size="12" fill="#333">carried rigidly (U)</text>
<line x1="312" y1="1084" x2="342" y2="1084" stroke="#d62728" stroke-width="2.20"/>
<text x="348" y="1088" font-family="-apple-system,Helvetica,Arial" font-size="12" fill="#333">Local</text>
<line x1="403" y1="1084" x2="433" y2="1084" stroke="#2ca02c" stroke-width="2.20"/>
<text x="439" y="1088" font-family="-apple-system,Helvetica,Arial" font-size="12" fill="#333">Always-cubic</text>
<line x1="540" y1="1084" x2="570" y2="1084" stroke="#ff7f0e" stroke-width="2.20"/>
<text x="576" y="1088" font-family="-apple-system,Helvetica,Arial" font-size="12" fill="#333">Morph</text>
<line x1="631" y1="1084" x2="661" y2="1084" stroke="#f3c98b" stroke-width="9.00"/>
<text x="667" y="1088" font-family="-apple-system,Helvetica,Arial" font-size="12" fill="#333">Local blend region</text>
</svg>
