<svg xmlns="http://www.w3.org/2000/svg" width="1100" height="1100" viewBox="0 0 1100 1100">
<rect x="0" y="0" width="1100" height="1100" fill="#ffffff"/>
<text x="18" y="26" font-family="-apple-system,Helvetica,Arial" font-size="18" font-weight="600" fill="#111">wiggle/chord-flip</text>
<text x="18" y="46" font-family="ui-monospace,Menlo,monospace" font-size="12" fill="#444">A moves past B; both stored edge facings now oppose the chord</text>
<text x="18" y="63" font-family="ui-monospace,Menlo,monospace" font-size="12" fill="#444">ends: A edge:REVERSED obliq 173.6deg   B edge:REVERSED obliq 147.3deg   -- U-turn is EXPECTED here (D26); see the W7 section</text>
<text x="18" y="80" font-family="ui-monospace,Menlo,monospace" font-size="12" fill="#444">rest 320 samples, len 396.7u, chord 331.7u   |   warped L' 630.4u, scale 1.589</text>
<text x="18" y="97" font-family="ui-monospace,Menlo,monospace" font-size="12" fill="#444">blend: turn 176.4/176.4deg -&gt; length 0.293/0.293 of arc (184.8/184.8u), stub 277.1/277.1u</text>
<text x="18" y="114" font-family="ui-monospace,Menlo,monospace" font-size="12" fill="#444">W4 facing dev (start/end deg): A 176.4/176.4   A+C 0.8/0.5</text>
<text x="18" y="131" font-family="ui-monospace,Menlo,monospace" font-size="12" fill="#444">W5 A+C new cusps blend+middle 14+0 (min blend radius 1.1u vs bar 12.0u)   |   overshoot 20</text>
<text x="18" y="148" font-family="ui-monospace,Menlo,monospace" font-size="12" fill="#444">cost: blend spans 59% of arc (mean deviation there 42.02u), leaving 41% of the line carried rigidly, worst deviation in it 0.00u</text>
<polyline fill="none" stroke="#c9c9c9" stroke-width="1.40" stroke-linejoin="round" stroke-linecap="round" stroke-dasharray="6,4" points="26.0,607.7 184.6,607.7 184.6,717.0 26.0,717.0 26.0,607.7"/>
<polyline fill="none" stroke="#c9c9c9" stroke-width="1.40" stroke-linejoin="round" stroke-linecap="round" stroke-dasharray="6,4" points="475.4,565.4 651.7,565.4 651.7,688.8 475.4,688.8 475.4,565.4"/>
<polyline fill="none" stroke="#111111" stroke-width="1.80" stroke-linejoin="round" stroke-linecap="round" points="775.1,502.0 933.7,502.0 933.7,611.3 775.1,611.3 775.1,502.0"/>
<polyline fill="none" stroke="#111111" stroke-width="1.80" stroke-linejoin="round" stroke-linecap="round" points="475.4,565.4 651.7,565.4 651.7,688.8 475.4,688.8 475.4,565.4"/>
<polyline fill="none" stroke="#bbbbbb" stroke-width="3.00" stroke-linejoin="round" stroke-linecap="round" points="184.6,656.9 185.4,656.6 186.3,656.3 187.2,656.0 188.1,655.7 189.0,655.5 189.8,655.2 190.8,655.0 191.7,654.8 192.6,654.6 193.6,654.5 194.6,654.3 195.6,654.2 196.6,654.1 197.6,654.0 198.6,653.9 199.6,653.8 200.6,653.7 201.6,653.6 202.7,653.5 203.7,653.5 204.8,653.4 205.9,653.3 206.9,653.2 208.0,653.1 209.1,653.0 210.2,652.8 211.3,652.7 212.4,652.5 213.5,652.2 214.6,652.0 215.7,651.7 216.8,651.4 217.9,651.0 219.0,650.6 220.1,650.1 221.1,649.6 222.2,649.0 223.3,648.4 224.3,647.8 225.4,647.0 226.4,646.2 227.5,645.4 228.6,644.5 229.6,643.5 230.7,642.4 231.8,641.4 232.9,640.3 233.9,639.1 235.0,637.9 236.0,636.6 237.1,635.3 238.2,633.9 239.2,632.6 240.3,631.2 241.2,629.9 242.2,628.5 243.2,627.2 244.2,625.9 245.2,624.5 246.3,623.2 247.3,621.8 248.3,620.6 249.3,619.4 250.3,618.1 251.3,617.0 252.3,615.9 253.3,614.8 254.3,613.7 255.4,612.7 256.3,611.8 257.3,611.0 258.4,610.2 259.4,609.6 260.3,608.9 261.3,608.4 262.4,607.9 263.4,607.5 264.4,607.2 265.4,606.9 266.4,606.7 267.3,606.6 268.3,606.5 269.4,606.5 270.4,606.6 271.3,606.7 272.3,606.9 273.3,607.2 274.3,607.5 275.3,607.9 276.3,608.3 277.2,608.8 278.1,609.3 279.1,609.9 280.1,610.5 281.0,611.1 281.9,611.7 282.9,612.4 283.8,613.0 284.7,613.7 285.6,614.4 286.5,615.2 287.3,615.9 288.2,616.6 289.1,617.3 290.0,618.1 290.9,618.8 291.7,619.5 292.5,620.2 293.3,620.9 294.1,621.6 294.9,622.3 295.7,622.9 296.5,623.6 297.3,624.3 298.1,625.0 298.9,625.6 299.6,626.1 300.3,626.7 301.0,627.3 301.8,627.8 302.5,628.4 303.2,628.9 303.9,629.4 304.7,629.9 305.3,630.3 306.0,630.7 306.7,631.1 307.4,631.4 308.0,631.7 308.7,632.1 309.3,632.4 310.0,632.6 310.6,632.8 311.2,633.0 311.8,633.2 312.4,633.4 313.0,633.5 313.6,633.7 314.3,633.8 314.9,633.8 315.4,633.9 316.0,633.9 316.7,633.9 317.2,633.9 317.8,633.8 318.5,633.7 319.1,633.6 319.7,633.4 320.3,633.3 321.0,633.0 321.6,632.8 322.2,632.6 322.8,632.3 323.4,632.0 323.9,631.6 324.5,631.3 325.1,630.9 325.7,630.5 326.3,630.1 326.9,629.6 327.6,629.0 328.3,628.4 328.9,627.9 329.5,627.3 330.1,626.7 330.7,626.1 331.3,625.4 331.9,624.7 332.6,623.9 333.2,623.1 333.8,622.2 334.5,621.3 335.1,620.4 335.8,619.4 336.5,618.4 337.2,617.3 337.8,616.4 338.5,615.3 339.2,614.3 339.9,613.3 340.5,612.3 341.3,611.1 342.0,610.0 342.7,608.9 343.5,607.8 344.2,606.7 344.9,605.6 345.7,604.4 346.4,603.3 347.3,602.1 348.0,601.0 348.9,599.9 349.7,598.8 350.6,597.7 351.4,596.7 352.2,595.7 353.1,594.7 354.1,593.8 355.0,593.0 355.8,592.3 356.7,591.6 357.6,591.0 358.6,590.4 359.6,589.9 360.6,589.4 361.6,589.1 362.6,588.8 363.7,588.6 364.7,588.5 365.8,588.5 366.9,588.5 368.0,588.7 369.1,588.9 370.2,589.2 371.4,589.6 372.5,590.1 373.7,590.7 374.9,591.3 376.1,592.1 377.3,592.8 378.6,593.7 379.9,594.7 381.1,595.7 382.3,596.7 383.6,597.8 384.8,599.0 386.1,600.2 387.4,601.4 388.7,602.7 390.1,604.1 391.4,605.4 392.8,606.8 394.1,608.2 395.4,609.4 396.7,610.7 398.0,611.9 399.3,613.2 400.5,614.3 401.8,615.5 403.1,616.6 404.3,617.7 405.6,618.7 406.8,619.6 408.0,620.5 409.2,621.4 410.5,622.3 411.8,623.0 413.0,623.7 414.1,624.3 415.3,624.9 416.4,625.4 417.6,625.8 418.8,626.2 420.0,626.5 421.1,626.7 422.2,626.9 423.3,627.0 424.4,627.1 425.5,627.1 426.6,627.1 427.7,627.0 428.7,626.9 429.7,626.8 430.8,626.6 431.8,626.4 432.8,626.2 433.8,626.0 434.8,625.8 435.7,625.5 436.7,625.2 437.7,624.9 438.7,624.6 439.6,624.3 440.5,624.1 441.4,623.8 442.3,623.5 443.3,623.2 444.1,623.0 445.0,622.7 446.0,622.5 446.8,622.3 447.6,622.1 448.5,622.0 449.3,621.8 450.2,621.7 451.0,621.6 451.8,621.5 452.6,621.4 453.5,621.4 454.3,621.3 455.1,621.3 455.9,621.3 456.7,621.4 457.5,621.4 458.3,621.5 459.1,621.6 459.8,621.7 460.6,621.8 461.4,621.9 462.1,622.1 462.8,622.3 463.6,622.4 464.3,622.6 465.0,622.8 465.7,623.1 466.3,623.3 467.0,623.5 467.7,623.8 468.4,624.0 469.2,624.3 469.9,624.6 470.6,624.9 471.3,625.2 472.0,625.5 472.7,625.8 473.3,626.1 474.1,626.5 474.7,626.8 475.4,627.1"/>
<polyline fill="none" stroke="#e8a33d" stroke-width="1.00" stroke-linejoin="round" stroke-linecap="round" stroke-dasharray="1,4" opacity="0.80" points="933.7,551.2 1012.0,529.0"/>
<polyline fill="none" stroke="#e8a33d" stroke-width="1.00" stroke-linejoin="round" stroke-linecap="round" stroke-dasharray="1,4" opacity="0.80" points="475.4,627.1 400.6,595.0"/>
<polyline fill="none" stroke="#f3c98b" stroke-width="9.00" stroke-linejoin="round" stroke-linecap="round" opacity="0.85" points="933.7,551.2 935.6,550.6 937.5,550.0 939.4,549.5 941.1,549.1 942.7,548.7 944.2,548.4 945.7,548.2 947.1,548.1 948.3,548.0 949.5,547.9 950.6,548.0 951.6,548.1 952.4,548.2 953.2,548.5 953.9,548.7 954.4,549.1 954.9,549.5 955.2,549.9 955.4,550.5 955.5,551.0 955.5,551.6 955.4,552.3 955.1,553.0 954.8,553.7 954.4,554.5 953.8,555.4 953.2,556.3 952.5,557.3 951.6,558.3 950.6,559.4 949.6,560.5 948.5,561.7 947.3,562.9 945.9,564.2 944.5,565.5 943.0,566.9 941.3,568.4 939.5,569.9 937.7,571.4 935.6,573.2 933.5,574.9 931.2,576.7 928.7,578.6 925.9,580.7 923.0,582.8 920.0,585.0 916.8,587.2 913.5,589.5 910.1,591.8 906.4,594.2 902.6,596.7 898.5,599.2 894.6,601.6 890.5,604.1 886.5,606.4 882.5,608.7 878.4,611.0 874.4,613.2 870.3,615.4 866.2,617.5 862.0,619.6 858.2,621.4 854.4,623.3 850.6,625.0 846.9,626.6 843.5,628.1 840.2,629.5 836.8,630.8 833.6,632.0 830.8,633.1 828.0,634.0 825.3,634.9 822.9,635.7 820.7,636.3"/>
<polyline fill="none" stroke="#f3c98b" stroke-width="9.00" stroke-linejoin="round" stroke-linecap="round" opacity="0.85" points="475.4,627.1 473.9,626.4 472.3,625.7 470.8,625.0 469.6,624.4 468.3,623.7 467.1,623.1 465.9,622.5 464.9,621.9 463.8,621.4 462.9,620.8 462.1,620.3 461.4,619.9 460.8,619.4 460.1,619.0 459.7,618.6 459.2,618.2 458.9,617.9 458.5,617.5 458.3,617.3 458.1,616.9 457.9,616.6 457.9,616.5 457.8,616.2 457.8,616.2 457.9,616.0 457.9,616.0 458.2,615.8 458.4,615.6 458.7,615.5 459.1,615.3 459.5,615.2 460.1,615.1 460.7,615.0 461.3,614.9 462.0,614.9 462.9,614.8 463.8,614.8 464.7,614.8 465.7,614.8 466.9,614.8 468.2,614.9 469.4,614.9 470.8,615.0 472.3,615.2 473.8,615.3 475.3,615.4 477.1,615.6 478.9,615.9 480.8,616.1 482.7,616.4 484.7,616.6 486.7,617.0 488.8,617.3 490.9,617.6 493.1,618.0 495.6,618.5 497.9,618.9 500.2,619.4 502.6,619.8 505.2,620.4 507.9,621.0 510.4,621.5 513.2,622.2 516.0,622.8 518.7,623.5 521.8,624.3 524.9,625.1 528.1,625.9 531.4,626.8 534.7,627.7 538.1,628.7 541.6,629.7 545.6,630.9 549.6,632.1 553.5,633.3 557.6,634.6 561.6,635.9 565.8,637.3 569.9,638.7 574.2,640.2 578.5,641.8 582.6,643.3 586.9,645.0 591.1,646.7 595.0,648.3 599.0,650.1 603.0,651.9 606.8,653.8 610.4,655.6 613.7,657.5 616.8,659.3"/>
<polyline fill="none" stroke="#8fbde0" stroke-width="6.00" stroke-linejoin="round" stroke-linecap="round" points="933.7,551.2 932.4,551.7 931.0,552.2 929.6,552.8 928.3,553.3 926.9,553.8 925.5,554.2 924.1,554.6 922.6,555.0 921.2,555.4 919.7,555.8 918.1,556.1 916.5,556.5 915.0,556.8 913.4,557.0 911.9,557.3 910.3,557.6 908.6,557.8 907.0,558.0 905.4,558.3 903.7,558.5 902.1,558.8 900.4,559.0 898.7,559.3 896.9,559.6 895.2,559.9 893.5,560.3 891.8,560.7 890.1,561.1 888.4,561.6 886.6,562.1 885.0,562.7 883.3,563.4 881.6,564.1 879.9,564.8 878.3,565.7 876.7,566.6 875.0,567.6 873.4,568.7 871.8,569.8 870.2,571.1 868.6,572.4 867.0,573.8 865.4,575.3 863.7,577.0 862.1,578.8 860.5,580.6 858.9,582.4 857.3,584.4 855.8,586.4 854.2,588.5 852.7,590.7 851.1,593.0 849.6,595.2 848.0,597.5 846.6,599.6 845.1,601.8 843.6,604.1 842.2,606.3 840.7,608.5 839.2,610.7 837.7,612.9 836.3,615.0 834.8,617.0 833.3,619.1 831.8,621.0 830.3,622.9 828.9,624.6 827.3,626.4 825.7,628.0 824.2,629.5 822.7,630.9 821.1,632.2 819.6,633.3 818.1,634.4 816.6,635.3 815.0,636.2 813.5,636.9 812.0,637.5 810.4,638.0 808.9,638.3 807.4,638.6 805.8,638.8 804.3,638.9 802.7,638.9 801.2,638.8 799.6,638.6 798.1,638.3 796.5,638.0 794.9,637.5 793.2,636.9 791.7,636.3 790.2,635.7 788.6,634.9 787.0,634.1 785.4,633.2 783.9,632.3 782.3,631.4 780.8,630.4 779.3,629.4 777.8,628.4 776.3,627.4 774.9,626.4 773.4,625.3 771.9,624.2 770.3,623.1 768.9,622.0 767.6,621.0 766.2,620.0 764.8,619.0 763.5,618.0 762.1,617.0 760.9,616.1 759.5,615.1 758.2,614.1 756.8,613.1 755.6,612.2 754.4,611.4 753.2,610.6 751.9,609.8 750.7,609.0 749.5,608.2 748.3,607.5 747.1,606.8 745.9,606.1 744.8,605.5 743.7,605.0 742.5,604.4 741.4,604.0 740.4,603.6 739.3,603.1 738.2,602.8 737.2,602.4 736.2,602.2 735.3,601.9 734.3,601.7 733.3,601.5 732.3,601.4 731.3,601.3 730.3,601.2 729.4,601.2 728.5,601.2 727.6,601.2 726.6,601.3 725.7,601.4 724.8,601.5 723.8,601.7 722.9,602.0 722.0,602.2 721.0,602.6 720.0,603.0 719.0,603.4 718.2,603.8 717.2,604.3 716.3,604.8 715.5,605.3 714.6,605.9 713.7,606.6 712.7,607.3 711.8,608.0 710.9,608.8 709.9,609.7 708.9,610.7 708.0,611.6 707.0,612.6 706.1,613.6 705.3,614.7 704.4,615.8 703.4,617.0 702.5,618.3 701.5,619.6 700.6,621.0 699.7,622.4 698.7,624.0 697.7,625.6 696.6,627.3 695.6,629.0 694.7,630.6 693.7,632.3 692.7,634.0 691.8,635.7 690.8,637.4 689.7,639.3 688.8,641.0 687.6,643.0 686.6,644.8 685.6,646.6 684.5,648.4 683.4,650.3 682.3,652.1 681.1,654.1 680.0,655.9 678.7,657.8 677.5,659.6 676.2,661.4 675.0,663.0 673.7,664.6 672.4,666.2 671.0,667.8 669.6,669.1 668.3,670.3 667.0,671.4 665.6,672.4 664.1,673.5 662.6,674.3 661.1,675.1 659.6,675.7 657.9,676.2 656.3,676.6 654.7,676.9 653.1,677.0 651.3,677.1 649.7,677.0 647.9,676.7 646.1,676.4 644.2,675.9 642.3,675.3 640.4,674.5 638.5,673.7 636.5,672.7 634.6,671.6 632.4,670.4 630.3,669.0 628.2,667.6 626.2,666.0 624.1,664.4 622.0,662.8 619.7,660.9 617.6,659.2 615.4,657.2 613.1,655.2 610.8,653.2 608.5,651.2 606.2,649.2 604.0,647.3 601.9,645.5 599.7,643.6 597.6,641.8 595.5,640.1 593.3,638.4 591.2,636.7 589.1,635.2 587.0,633.7 585.0,632.4 582.9,631.0 580.9,629.8 578.8,628.6 576.7,627.5 574.7,626.6 572.9,625.8 570.9,625.0 569.1,624.4 567.2,623.8 565.3,623.4 563.3,623.0 561.6,622.8 559.9,622.6 558.0,622.5 556.4,622.5 554.6,622.5 552.8,622.7 551.2,622.9 549.6,623.1 548.0,623.4 546.3,623.7 544.7,624.1 543.2,624.5 541.6,624.9 540.1,625.4 538.6,625.9 537.1,626.4 535.6,626.9 534.0,627.5 532.5,628.0 531.1,628.5 529.7,629.0 528.3,629.5 526.8,630.0 525.5,630.5 524.0,630.9 522.6,631.4 521.3,631.8 520.0,632.1 518.6,632.5 517.3,632.8 516.0,633.0 514.7,633.3 513.4,633.5 512.1,633.7 510.7,633.9 509.5,634.0 508.2,634.1 506.9,634.1 505.6,634.2 504.4,634.2 503.2,634.1 501.9,634.1 500.7,634.0 499.5,633.9 498.3,633.7 497.1,633.6 496.0,633.4 494.7,633.2 493.6,632.9 492.5,632.7 491.4,632.4 490.3,632.2 489.2,631.9 488.0,631.5 486.9,631.2 485.7,630.8 484.5,630.4 483.3,630.1 482.2,629.7 481.0,629.2 479.9,628.8 478.9,628.4 477.7,628.0 476.6,627.6 475.4,627.1"/>
<polyline fill="none" stroke="#d62728" stroke-width="2.20" stroke-linejoin="round" stroke-linecap="round" points="933.7,551.2 935.6,550.6 937.5,550.0 939.4,549.5 941.1,549.1 942.7,548.7 944.2,548.4 945.7,548.2 947.1,548.1 948.3,548.0 949.5,547.9 950.6,548.0 951.6,548.1 952.4,548.2 953.2,548.5 953.9,548.7 954.4,549.1 954.9,549.5 955.2,549.9 955.4,550.5 955.5,551.0 955.5,551.6 955.4,552.3 955.1,553.0 954.8,553.7 954.4,554.5 953.8,555.4 953.2,556.3 952.5,557.3 951.6,558.3 950.6,559.4 949.6,560.5 948.5,561.7 947.3,562.9 945.9,564.2 944.5,565.5 943.0,566.9 941.3,568.4 939.5,569.9 937.7,571.4 935.6,573.2 933.5,574.9 931.2,576.7 928.7,578.6 925.9,580.7 923.0,582.8 920.0,585.0 916.8,587.2 913.5,589.5 910.1,591.8 906.4,594.2 902.6,596.7 898.5,599.2 894.6,601.6 890.5,604.1 886.5,606.4 882.5,608.7 878.4,611.0 874.4,613.2 870.3,615.4 866.2,617.5 862.0,619.6 858.2,621.4 854.4,623.3 850.6,625.0 846.9,626.6 843.5,628.1 840.2,629.5 836.8,630.8 833.6,632.0 830.8,633.1 828.0,634.0 825.3,634.9 822.9,635.7 820.7,636.3 818.4,636.9 816.3,637.4 814.3,637.8 812.5,638.2 810.7,638.4 809.0,638.6 807.4,638.8 805.8,638.9 804.3,638.9 802.7,638.9 801.2,638.8 799.6,638.6 798.1,638.3 796.5,638.0 794.9,637.5 793.2,636.9 791.7,636.3 790.2,635.7 788.6,634.9 787.0,634.1 785.4,633.2 783.9,632.3 782.3,631.4 780.8,630.4 779.3,629.4 777.8,628.4 776.3,627.4 774.9,626.4 773.4,625.3 771.9,624.2 770.3,623.1 768.9,622.0 767.6,621.0 766.2,620.0 764.8,619.0 763.5,618.0 762.1,617.0 760.9,616.1 759.5,615.1 758.2,614.1 756.8,613.1 755.6,612.2 754.4,611.4 753.2,610.6 751.9,609.8 750.7,609.0 749.5,608.2 748.3,607.5 747.1,606.8 745.9,606.1 744.8,605.5 743.7,605.0 742.5,604.4 741.4,604.0 740.4,603.6 739.3,603.1 738.2,602.8 737.2,602.4 736.2,602.2 735.3,601.9 734.3,601.7 733.3,601.5 732.3,601.4 731.3,601.3 730.3,601.2 729.4,601.2 728.5,601.2 727.6,601.2 726.6,601.3 725.7,601.4 724.8,601.5 723.8,601.7 722.9,602.0 722.0,602.2 721.0,602.6 720.0,603.0 719.0,603.4 718.2,603.8 717.2,604.3 716.3,604.8 715.5,605.3 714.6,605.9 713.7,606.6 712.7,607.3 711.8,608.0 710.9,608.8 709.9,609.7 708.9,610.7 708.0,611.6 707.0,612.6 706.1,613.6 705.3,614.7 704.4,615.8 703.4,617.0 702.5,618.3 701.5,619.6 700.6,621.0 699.7,622.4 698.7,624.0 697.7,625.6 696.6,627.3 695.6,629.0 694.7,630.6 693.7,632.3 692.7,634.0 691.8,635.7 690.8,637.4 689.7,639.3 688.8,641.0 687.6,643.0 686.6,644.8 685.6,646.6 684.5,648.4 683.4,650.3 682.3,652.1 681.1,654.1 680.0,655.9 678.7,657.8 677.5,659.6 676.2,661.4 675.0,663.0 673.7,664.6 672.4,666.2 671.0,667.8 669.6,669.1 668.3,670.3 667.0,671.4 665.6,672.4 664.1,673.5 662.6,674.3 661.1,675.1 659.6,675.7 657.9,676.2 656.3,676.6 654.7,676.9 653.1,677.0 651.3,677.1 649.7,677.0 647.9,676.7 646.1,676.4 644.2,675.9 642.3,675.3 640.4,674.5 638.5,673.7 636.5,672.7 634.6,671.6 632.4,670.4 630.3,669.0 628.2,667.6 626.2,666.0 624.1,664.4 621.9,662.8 619.4,661.0 616.8,659.3 613.7,657.5 610.4,655.6 606.8,653.8 603.0,651.9 599.0,650.1 595.0,648.3 591.1,646.7 586.9,645.0 582.6,643.3 578.5,641.8 574.2,640.2 569.9,638.7 565.8,637.3 561.6,635.9 557.6,634.6 553.5,633.3 549.6,632.1 545.6,630.9 541.6,629.7 538.1,628.7 534.7,627.7 531.4,626.8 528.1,625.9 524.9,625.1 521.8,624.3 518.7,623.5 516.0,622.8 513.2,622.2 510.4,621.5 507.9,621.0 505.2,620.4 502.6,619.8 500.2,619.4 497.9,618.9 495.6,618.5 493.1,618.0 490.9,617.6 488.8,617.3 486.7,617.0 484.7,616.6 482.7,616.4 480.8,616.1 478.9,615.9 477.1,615.6 475.3,615.4 473.8,615.3 472.3,615.2 470.8,615.0 469.4,614.9 468.2,614.9 466.9,614.8 465.7,614.8 464.7,614.8 463.8,614.8 462.9,614.8 462.0,614.9 461.3,614.9 460.7,615.0 460.1,615.1 459.5,615.2 459.1,615.3 458.7,615.5 458.4,615.6 458.2,615.8 457.9,616.0 457.9,616.0 457.8,616.2 457.8,616.2 457.9,616.5 457.9,616.6 458.1,616.9 458.3,617.3 458.5,617.5 458.9,617.9 459.2,618.2 459.7,618.6 460.1,619.0 460.8,619.4 461.4,619.9 462.1,620.3 462.9,620.8 463.8,621.4 464.9,621.9 465.9,622.5 467.1,623.1 468.3,623.7 469.6,624.4 470.8,625.0 472.3,625.7 473.9,626.4 475.4,627.1"/>
<polyline fill="none" stroke="#e8a33d" stroke-width="2.00" stroke-linejoin="round" stroke-linecap="round" stroke-dasharray="2,3" opacity="0.95" points="825.5,647.1 819.0,623.3"/>
<polyline fill="none" stroke="#e8a33d" stroke-width="2.00" stroke-linejoin="round" stroke-linecap="round" stroke-dasharray="2,3" opacity="0.95" points="606.5,667.5 618.7,646.1"/>
<path d="M 933.7 551.2 L 966.4 541.9 M 959.1 549.2 L 966.4 541.9 L 956.4 539.5" fill="none" stroke="#e07b00" stroke-width="1.6"/>
<path d="M 475.4 627.1 L 444.2 613.7 M 454.4 612.7 L 444.2 613.7 L 450.5 621.8" fill="none" stroke="#e07b00" stroke-width="1.6"/>
<circle cx="933.7" cy="551.2" r="4.20" fill="#111111"/>
<circle cx="475.4" cy="627.1" r="4.20" fill="#111111"/>
<line x1="18" y1="1084" x2="48" y2="1084" stroke="#bbbbbb" stroke-width="3.00"/>
<text x="54" y="1088" font-family="-apple-system,Helvetica,Arial" font-size="12" fill="#333">as drawn</text>
<line x1="129" y1="1084" x2="159" y2="1084" stroke="#8fbde0" stroke-width="6.00"/>
<text x="165" y="1088" font-family="-apple-system,Helvetica,Arial" font-size="12" fill="#333">carried rigidly = the ideal</text>
<line x1="365" y1="1084" x2="395" y2="1084" stroke="#d62728" stroke-width="2.20"/>
<text x="401" y="1088" font-family="-apple-system,Helvetica,Arial" font-size="12" fill="#333">shipped output</text>
<line x1="515" y1="1084" x2="545" y2="1084" stroke="#f3c98b" stroke-width="9.00"/>
<text x="551" y="1088" font-family="-apple-system,Helvetica,Arial" font-size="12" fill="#333">blend allowed here</text>
</svg>
